<svg width="16" height="16" viewBox="0 0 16 16" fill="none" xmlns="http://www.w3.org/2000/svg">
<path fill-rule="evenodd" clip-rule="evenodd" d="M3.66668 2.66602C2.7462 2.66602 2.00001 3.41221 2.00001 4.33268V4.99935C2.00001 5.18344 2.14925 5.33268 2.33334 5.33268C2.51744 5.33268 2.66668 5.18344 2.66668 4.99935V4.33268C2.66668 3.7804 3.11439 3.33268 3.66668 3.33268H8.00001C8.5523 3.33268 9.00001 3.7804 9.00001 4.33268V4.99836L9.00001 4.99935L9.00001 5.00034V11.9993H7.33333V11.9992C7.33333 11.0787 6.58714 10.3325 5.66667 10.3325C4.74619 10.3325 4 11.0787 4 11.9992V11.9993H3.66668C3.11439 11.9993 2.66668 11.5516 2.66668 10.9993V10.3452C2.66668 10.1611 2.51744 10.0118 2.33334 10.0118C2.14925 10.0118 2.00001 10.1611 2.00001 10.3452V10.9993C2.00001 11.9198 2.7462 12.666 3.66668 12.666H4.13875C4.39597 13.2546 4.98329 13.6659 5.66667 13.6659C6.35004 13.6659 6.93736 13.2546 7.19458 12.666H9.4721C9.72932 13.2546 10.3166 13.6659 11 13.6659C11.6834 13.6659 12.2707 13.2546 12.5279 12.666H13C13.9205 12.666 14.6667 11.9198 14.6667 10.9993V9.66885L14.6667 9.66618L14.6667 9.66351V8.25261C14.6667 7.90807 14.5599 7.572 14.361 7.29064L12.8048 5.08883C12.6174 4.82367 12.3129 4.66602 11.9882 4.66602H9.66668V4.33268C9.66668 3.41221 8.92049 2.66602 8.00001 2.66602H3.66668ZM14 8.25261V9.33285H12.6667C12.4826 9.33285 12.3334 9.18361 12.3334 8.99951V6.99951C12.3334 6.81542 12.4826 6.66618 12.6667 6.66618H13.1033L13.8166 7.67543C13.9359 7.84424 14 8.04589 14 8.25261ZM11.6667 6.99951C11.6667 6.45868 12.096 6.01812 12.6325 6.00009L12.2604 5.47362C12.1979 5.38523 12.0964 5.33268 11.9882 5.33268H9.66668V10.999C9.97075 10.5943 10.4548 10.3325 11 10.3325C11.9205 10.3325 12.6667 11.0787 12.6667 11.9992V11.9993H13C13.5523 11.9993 14 11.5516 14 10.9993V9.99951H12.6667C12.1144 9.99951 11.6667 9.5518 11.6667 8.99951V6.99951ZM4.66667 11.9992C4.66667 11.4469 5.11438 10.9992 5.66667 10.9992C6.21895 10.9992 6.66667 11.4469 6.66667 11.9992C6.66667 12.5515 6.21895 12.9992 5.66667 12.9992C5.11438 12.9992 4.66667 12.5515 4.66667 11.9992ZM11 10.9992C10.4477 10.9992 10 11.4469 10 11.9992C10 12.5515 10.4477 12.9992 11 12.9992C11.5523 12.9992 12 12.5515 12 11.9992C12 11.4469 11.5523 10.9992 11 10.9992ZM1.66668 5.99951C1.48258 5.99951 1.33334 6.14875 1.33334 6.33284C1.33334 6.51694 1.48258 6.66618 1.66668 6.66618H5.66668C5.85077 6.66618 6.00001 6.51694 6.00001 6.33284C6.00001 6.14875 5.85077 5.99951 5.66668 5.99951H1.66668ZM2.66669 7.66585C2.66669 7.48176 2.81593 7.33252 3.00002 7.33252H7.00002C7.18412 7.33252 7.33335 7.48176 7.33335 7.66585C7.33335 7.84995 7.18412 7.99919 7.00002 7.99919H3.00002C2.81593 7.99919 2.66669 7.84995 2.66669 7.66585ZM2.00001 8.66602C1.81592 8.66602 1.66668 8.81525 1.66668 8.99935C1.66668 9.18344 1.81592 9.33268 2.00001 9.33268H6.00001C6.1841 9.33268 6.33334 9.18344 6.33334 8.99935C6.33334 8.81525 6.1841 8.66602 6.00001 8.66602H2.00001Z" fill="#486C72"/>
</svg>
