<svg width="32" height="32" viewBox="0 0 32 32" fill="none" xmlns="http://www.w3.org/2000/svg">
<path d="M27.5914 17H5.02571C4.45952 17 4 16.553 4 16C4 15.447 4.45952 15 5.02571 15H27.5914C28.1576 15 28.6171 15.447 28.6171 16C28.6171 16.553 28.1576 17 27.5914 17Z" fill="#486C72"/>
<path d="M27.5914 10H16.3086C15.7424 10 15.2828 9.553 15.2828 9C15.2828 8.447 15.7424 8 16.3086 8H27.5914C28.1576 8 28.6171 8.447 28.6171 9C28.6171 9.553 28.1576 10 27.5914 10Z" fill="#486C72"/>
<path d="M16.3086 24H5.02571C4.45952 24 4 23.553 4 23C4 22.447 4.45952 22 5.02571 22H16.3086C16.8748 22 17.3343 22.447 17.3343 23C17.3343 23.553 16.8748 24 16.3086 24Z" fill="#486C72"/>
</svg>
