<svg width="32" height="32" viewBox="0 0 32 32" fill="none" xmlns="http://www.w3.org/2000/svg">
<path fill-rule="evenodd" clip-rule="evenodd" d="M5.66072 5.17818C5.16989 4.85337 4.50673 4.98503 4.1795 5.47224C3.85228 5.95944 3.98492 6.61771 4.47575 6.94252L7.00333 8.61514C7.22129 8.75937 7.37826 8.97808 7.44438 9.22968L10.0268 19.0559C10.3949 20.4565 11.6692 21.4338 13.1274 21.4338H23.1411C24.625 21.4338 25.9147 20.4226 26.2584 18.9898L27.9114 12.0982C28.3908 10.0996 26.864 8.18082 24.7942 8.18082H12.5451C11.9552 8.18082 11.477 8.6555 11.477 9.24105C11.477 9.82661 11.9552 10.3013 12.5451 10.3013H24.7942C25.4841 10.3013 25.9931 10.9409 25.8333 11.6071L24.1802 18.4986C24.0657 18.9762 23.6357 19.3133 23.1411 19.3133H13.1274C12.6413 19.3133 12.2166 18.9875 12.0939 18.5207L9.51144 8.69443C9.31307 7.93962 8.84219 7.2835 8.18831 6.8508L5.66072 5.17818ZM11.2099 24.6145C11.2099 23.3006 12.2896 22.2289 13.6132 22.2289C14.9368 22.2289 16.0165 23.3006 16.0165 24.6145C16.0165 25.9283 14.9368 27 13.6132 27C12.2896 27 11.2099 25.9283 11.2099 24.6145ZM13.6132 23.8193C13.1744 23.8193 12.8121 24.1789 12.8121 24.6145C12.8121 25.05 13.1744 25.4096 13.6132 25.4096C14.052 25.4096 14.4143 25.05 14.4143 24.6145C14.4143 24.1789 14.052 23.8193 13.6132 23.8193ZM19.4879 24.6145C19.4879 23.3006 20.5675 22.2289 21.8911 22.2289C23.2148 22.2289 24.2944 23.3006 24.2944 24.6145C24.2944 25.9283 23.2148 27 21.8911 27C20.5675 27 19.4879 25.9283 19.4879 24.6145ZM21.8911 23.8193C21.4524 23.8193 21.09 24.1789 21.09 24.6145C21.09 25.05 21.4524 25.4096 21.8911 25.4096C22.3299 25.4096 22.6922 25.05 22.6922 24.6145C22.6922 24.1789 22.3299 23.8193 21.8911 23.8193Z" fill="#486C72"/>
</svg>
