<svg width="24" height="24" viewBox="0 0 24 24" fill="none" xmlns="http://www.w3.org/2000/svg">
<path fill-rule="evenodd" clip-rule="evenodd" d="M4.6875 9C4.6875 7.45184 5.95184 6.1875 7.5 6.1875C8.78865 6.1875 9.88065 7.06349 10.2105 8.25H18C18.4142 8.25 18.75 8.58579 18.75 9C18.75 9.41421 18.4142 9.75 18 9.75H10.2105C9.88065 10.9365 8.78865 11.8125 7.5 11.8125C5.95184 11.8125 4.6875 10.5482 4.6875 9ZM7.5 7.3125C6.57316 7.3125 5.8125 8.07316 5.8125 9C5.8125 9.92684 6.57316 10.6875 7.5 10.6875C8.42684 10.6875 9.1875 9.92684 9.1875 9C9.1875 8.07316 8.42684 7.3125 7.5 7.3125ZM6 14.25C5.58579 14.25 5.25 14.5858 5.25 15C5.25 15.4142 5.58579 15.75 6 15.75H13.7895C14.1194 16.9365 15.2114 17.8125 16.5 17.8125C18.0482 17.8125 19.3125 16.5482 19.3125 15C19.3125 13.4518 18.0482 12.1875 16.5 12.1875C15.2114 12.1875 14.1194 13.0635 13.7895 14.25H6ZM14.8125 15C14.8125 14.0732 15.5732 13.3125 16.5 13.3125C17.4268 13.3125 18.1875 14.0732 18.1875 15C18.1875 15.9268 17.4268 16.6875 16.5 16.6875C15.5732 16.6875 14.8125 15.9268 14.8125 15Z" fill="#486C72" fill-opacity="0.5"/>
</svg>
