<svg width="32" height="32" viewBox="0 0 32 32" fill="none" xmlns="http://www.w3.org/2000/svg">
<path fill-rule="evenodd" clip-rule="evenodd" d="M10.5 7C7.46243 7 5 9.46243 5 12.5C5 16.3179 7.486 19.6914 10.2904 22.191C11.6741 23.4243 13.0896 24.4029 14.2134 25.0697C14.7756 25.4033 15.255 25.653 15.6119 25.8156C15.7778 25.8912 15.9073 25.9434 16 25.976C16.0927 25.9434 16.2222 25.8912 16.3881 25.8156C16.745 25.653 17.2244 25.4033 17.7866 25.0697C18.9104 24.4029 20.3259 23.4243 21.7096 22.191C24.514 19.6914 27 16.3179 27 12.5C27 9.46243 24.5376 7 21.5 7C19.5416 7 17.8214 8.02286 16.8455 9.56823C16.6623 9.85838 16.3432 10.0343 16 10.0343C15.6569 10.0343 15.3377 9.85838 15.1545 9.56823C14.1786 8.02286 12.4584 7 10.5 7ZM3 12.5C3 8.35786 6.35786 5 10.5 5C12.6739 5 14.6311 5.92535 16 7.40108C17.3689 5.92535 19.3261 5 21.5 5C25.6421 5 29 8.35786 29 12.5C29 17.1821 25.986 21.0586 23.0404 23.684C21.5491 25.0132 20.0271 26.0659 18.8071 26.7897C18.1975 27.1514 17.6535 27.4369 17.2174 27.6356C17.0004 27.7344 16.7984 27.8172 16.6212 27.8774C16.4796 27.9255 16.2415 28 16 28C15.7585 28 15.5204 27.9255 15.3788 27.8774C15.2016 27.8172 14.9996 27.7344 14.7826 27.6356C14.3465 27.4369 13.8025 27.1514 13.1929 26.7897C11.9729 26.0659 10.4509 25.0132 8.95963 23.684C6.014 21.0586 3 17.1821 3 12.5Z" fill="#486C72"/>
</svg>
