<svg width="32" height="32" viewBox="0 0 32 32" fill="none" xmlns="http://www.w3.org/2000/svg">
<path fill-rule="evenodd" clip-rule="evenodd" d="M19.5703 4.25656C17.7899 2.77292 15.2234 2.70715 13.3694 4.09766L7.5 8.49969C6.24097 9.44396 5.5 10.9259 5.5 12.4997V23.4997C5.5 26.2611 7.73858 28.4997 10.5 28.4997H21.5C24.2614 28.4997 26.5 26.2611 26.5 23.4997V12.3732C26.5 10.8893 25.8409 9.48205 24.7009 8.53208L19.5703 4.25656ZM14.5694 5.69766C15.6818 4.86336 17.2217 4.90282 18.2899 5.793L23.4206 10.0685C24.1045 10.6385 24.5 11.4829 24.5 12.3732V23.4997C24.5 25.1565 23.1569 26.4997 21.5 26.4997H10.5C8.84315 26.4997 7.5 25.1565 7.5 23.4997V12.4997C7.5 11.5554 7.94458 10.6663 8.7 10.0997L14.5694 5.69766ZM17 15.9997C17 15.4474 16.5523 14.9997 16 14.9997C15.4477 14.9997 15 15.4474 15 15.9997V22.9997C15 23.552 15.4477 23.9997 16 23.9997C16.5523 23.9997 17 23.552 17 22.9997V15.9997Z" fill="white"/>
</svg>
