<svg width="32" height="32" viewBox="0 0 32 32" fill="none" xmlns="http://www.w3.org/2000/svg">
<path d="M16 28C22.6274 28 28 22.6274 28 16C28 9.37258 22.6274 4 16 4C9.37258 4 4 9.37258 4 16C4 22.6274 9.37258 28 16 28Z" fill="#486C72"/>
<path fill-rule="evenodd" clip-rule="evenodd" d="M11.6923 9C10.2054 9 9 10.2054 9 11.6923V20.3077C9 21.7946 10.2054 23 11.6923 23H20.3077C21.7946 23 23 21.7946 23 20.3077V11.6923C23 10.2054 21.7946 9 20.3077 9H11.6923ZM10.0769 11.6923C10.0769 10.8002 10.8002 10.0769 11.6923 10.0769H20.3077C21.1998 10.0769 21.9231 10.8002 21.9231 11.6923V20.3077C21.9231 21.1998 21.1998 21.9231 20.3077 21.9231H11.6923C10.8002 21.9231 10.0769 21.1998 10.0769 20.3077V11.6923ZM12.25 16C12.25 13.9358 13.9358 12.25 16 12.25C18.0642 12.25 19.75 13.9358 19.75 16C19.75 18.0642 18.0642 19.75 16 19.75C13.9358 19.75 12.25 18.0642 12.25 16ZM16 13.75C14.7642 13.75 13.75 14.7642 13.75 16C13.75 17.2358 14.7642 18.25 16 18.25C17.2358 18.25 18.25 17.2358 18.25 16C18.25 14.7642 17.2358 13.75 16 13.75ZM21 12C21 12.5523 20.5523 13 20 13C19.4477 13 19 12.5523 19 12C19 11.4477 19.4477 11 20 11C20.5523 11 21 11.4477 21 12Z" fill="white"/>
</svg>
