<svg width="32" height="32" viewBox="0 0 32 32" fill="none" xmlns="http://www.w3.org/2000/svg">
<path fill-rule="evenodd" clip-rule="evenodd" d="M15.9999 4C14.5373 4 13.1347 4.58956 12.1006 5.63896C11.0664 6.68834 10.4853 8.11164 10.4853 9.59577V11.8492C10.4853 13.3333 11.0664 14.7566 12.1006 15.806C13.1347 16.8554 14.5373 17.445 15.9999 17.445C17.4624 17.445 18.865 16.8554 19.8992 15.806C20.9333 14.7566 21.5144 13.3333 21.5144 11.8492V9.59577C21.5144 8.11164 20.9333 6.68834 19.8992 5.63896C18.865 4.58956 17.4624 4 15.9999 4ZM13.6182 7.1789C14.2499 6.5379 15.1065 6.17781 15.9999 6.17781C16.8932 6.17781 17.7499 6.5379 18.3816 7.1789C19.0133 7.81992 19.3682 8.68931 19.3682 9.59577V11.8492C19.3682 12.7557 19.0133 13.625 18.3816 14.2661C17.7499 14.9071 16.8932 15.2672 15.9999 15.2672C15.1065 15.2672 14.2499 14.9071 13.6182 14.2661C12.9864 13.625 12.6315 12.7557 12.6315 11.8492V9.59577C12.6315 8.68931 12.9864 7.81992 13.6182 7.1789ZM5.9972 27.6195C6.55694 27.8291 7.17612 27.5389 7.42549 26.9958C9.14837 23.2432 12.4196 20.825 16 20.825C19.5804 20.825 22.8516 23.2432 24.5745 26.9958C24.8239 27.5389 25.4431 27.8291 26.0028 27.6195C26.5551 27.4128 26.8412 26.7976 26.6017 26.2587C24.6235 21.8072 20.6551 18.6472 16 18.6472C11.3449 18.6472 7.37653 21.8072 5.39827 26.2587C5.15879 26.7976 5.44494 27.4128 5.9972 27.6195Z" fill="#486C72"/>
</svg>
