<svg width="25" height="24" viewBox="0 0 25 24" fill="none" xmlns="http://www.w3.org/2000/svg">
<path fill-rule="evenodd" clip-rule="evenodd" d="M2.75 6.75C2.75 6.33579 3.08579 6 3.5 6H21.5C21.9142 6 22.25 6.33579 22.25 6.75C22.25 7.16421 21.9142 7.5 21.5 7.5H3.5C3.08579 7.5 2.75 7.16421 2.75 6.75ZM2.75 12C2.75 11.5858 3.08579 11.25 3.5 11.25H14.75C15.1642 11.25 15.5 11.5858 15.5 12C15.5 12.4142 15.1642 12.75 14.75 12.75H3.5C3.08579 12.75 2.75 12.4142 2.75 12ZM3.5 16.5C3.08579 16.5 2.75 16.8358 2.75 17.25C2.75 17.6642 3.08579 18 3.5 18H8.75C9.16421 18 9.5 17.6642 9.5 17.25C9.5 16.8358 9.16421 16.5 8.75 16.5H3.5Z" fill="#486C72" fill-opacity="0.5"/>
</svg>
