<svg width="24" height="24" viewBox="0 0 24 24" fill="none" xmlns="http://www.w3.org/2000/svg">
<path fill-rule="evenodd" clip-rule="evenodd" d="M5.25 10.875C5.25 7.7684 7.7684 5.25 10.875 5.25C13.9816 5.25 16.5 7.7684 16.5 10.875C16.5 13.9816 13.9816 16.5 10.875 16.5C7.7684 16.5 5.25 13.9816 5.25 10.875ZM10.875 3.75C6.93997 3.75 3.75 6.93997 3.75 10.875C3.75 14.81 6.93997 18 10.875 18C12.5724 18 14.1311 17.4065 15.355 16.4156L18.9697 20.0303C19.2626 20.3232 19.7374 20.3232 20.0303 20.0303C20.3232 19.7374 20.3232 19.2626 20.0303 18.9697L16.4156 15.355C17.4065 14.1311 18 12.5724 18 10.875C18 6.93997 14.81 3.75 10.875 3.75Z" fill="#496D74" fill-opacity="0.5"/>
</svg>
