<svg width="24" height="24" viewBox="0 0 24 24" fill="none" xmlns="http://www.w3.org/2000/svg">
<path fill-rule="evenodd" clip-rule="evenodd" d="M11.4697 1.71967C11.7626 1.42678 12.2374 1.42678 12.5303 1.71967L15.5303 4.71967C15.8232 5.01256 15.8232 5.48744 15.5303 5.78033C15.2374 6.07322 14.7626 6.07322 14.4697 5.78033L12.75 4.06066V14.4476C12.75 14.8618 12.4142 15.1976 12 15.1976C11.5858 15.1976 11.25 14.8618 11.25 14.4476V4.06066L9.53033 5.78033C9.23744 6.07322 8.76256 6.07322 8.46967 5.78033C8.17678 5.48744 8.17678 5.01256 8.46967 4.71967L11.4697 1.71967ZM7.5 9C6.25736 9 5.25 10.0074 5.25 11.25V17.25C5.25 18.4926 6.25736 19.5 7.5 19.5H16.5C17.7426 19.5 18.75 18.4926 18.75 17.25V11.25C18.75 10.0074 17.7426 9 16.5 9H15C14.5858 9 14.25 8.66421 14.25 8.25C14.25 7.83579 14.5858 7.5 15 7.5H16.5C18.5711 7.5 20.25 9.17893 20.25 11.25V17.25C20.25 19.3211 18.5711 21 16.5 21H7.5C5.42893 21 3.75 19.3211 3.75 17.25V11.25C3.75 9.17893 5.42893 7.5 7.5 7.5H9C9.41421 7.5 9.75 7.83579 9.75 8.25C9.75 8.66421 9.41421 9 9 9H7.5Z" fill="#486C72" fill-opacity="0.5"/>
</svg>
