<svg width="32" height="32" viewBox="0 0 32 32" fill="none" xmlns="http://www.w3.org/2000/svg">
<path d="M16 28C22.6274 28 28 22.6274 28 16C28 9.37258 22.6274 4 16 4C9.37258 4 4 9.37258 4 16C4 22.6274 9.37258 28 16 28Z" fill="#486C72"/>
<path d="M20.5781 11.1107C20.5781 11.1107 21.8266 10.6252 21.7226 11.8044C21.6879 12.2899 21.3758 13.9894 21.133 15.8275L20.3006 21.2726C20.3006 21.2726 20.2313 22.0703 19.607 22.209C18.9827 22.3477 18.0463 21.7235 17.8729 21.5847C17.7342 21.4807 15.2717 19.92 14.4047 19.157C14.1619 18.9489 13.8845 18.5327 14.4394 18.0472L18.081 14.579C18.4972 14.1628 18.9134 13.1917 17.1792 14.3709L12.3238 17.6657C12.3238 17.6657 11.7688 18.0125 10.7284 17.7003L8.47405 17.0067C8.47405 17.0067 7.64168 16.4865 9.06364 15.9662C12.5319 14.3362 16.7977 12.6714 20.5781 11.1107Z" fill="white"/>
</svg>
