<svg width="33" height="32" viewBox="0 0 33 32" fill="none" xmlns="http://www.w3.org/2000/svg">
<path fill-rule="evenodd" clip-rule="evenodd" d="M12.5 7C12.5 5.83718 13.3746 5 14.3125 5H18.6875C19.1643 5 19.6066 5.20248 19.9455 5.56395C20.2854 5.92647 20.5 6.42904 20.5 7C20.5 8.16282 19.6254 9 18.6875 9H14.3125C13.8357 9 13.3934 8.79752 13.0545 8.43605C12.7146 8.07353 12.5 7.57096 12.5 7ZM10.622 6C11.0409 4.30998 12.4961 3 14.3125 3H18.6875C19.7607 3 20.7184 3.4642 21.4046 4.19606C21.8717 4.69432 22.2111 5.31342 22.3797 6H22.5C25.2614 6 27.5 8.23858 27.5 11V24C27.5 26.7614 25.2614 29 22.5 29H10.5C7.73858 29 5.5 26.7614 5.5 24V11C5.5 8.23858 7.73858 6 10.5 6H10.622ZM22.378 8H22.5C24.1569 8 25.5 9.34315 25.5 11V24C25.5 25.6569 24.1569 27 22.5 27H10.5C8.84315 27 7.5 25.6569 7.5 24V11C7.5 9.34315 8.84315 8 10.5 8H10.6203C10.7889 8.68658 11.1283 9.30568 11.5954 9.80394C12.2816 10.5358 13.2393 11 14.3125 11H18.6875C20.5039 11 21.9591 9.69002 22.378 8ZM10.5 17C10.5 16.4477 10.9477 16 11.5 16H16.5C17.0523 16 17.5 16.4477 17.5 17C17.5 17.5523 17.0523 18 16.5 18H11.5C10.9477 18 10.5 17.5523 10.5 17ZM11.5 21C10.9477 21 10.5 21.4477 10.5 22C10.5 22.5523 10.9477 23 11.5 23H21.5C22.0523 23 22.5 22.5523 22.5 22C22.5 21.4477 22.0523 21 21.5 21H11.5Z" fill="white"/>
</svg>
