<svg width="32" height="32" viewBox="0 0 32 32" fill="none" xmlns="http://www.w3.org/2000/svg">
<path fill-rule="evenodd" clip-rule="evenodd" d="M16 6C18.135 6 20.0899 6.58578 21.7074 7.60357L21.715 7.60831L21.715 7.60828C24.3366 9.22541 26 11.9148 26 14.9254C26 17.7983 24.4791 20.3797 22.0433 22.0119C21.7232 22.2265 21.5548 22.6059 21.6105 22.9873L22.218 27.1434L16.4858 23.9575C16.3372 23.8749 16.17 23.8316 16 23.8316C12.758 23.8316 9.90108 22.462 8.12024 20.3779L8.11034 20.3665C6.77769 18.8537 6 16.9602 6 14.9254C6 10.0877 10.3732 6 16 6ZM22.7688 5.90843C20.8271 4.68771 18.5034 4 16 4C9.46677 4 4 8.79488 4 14.9254C4 17.4838 4.98026 19.8364 6.60463 21.6828C8.73339 24.1707 12.0465 25.7566 15.7361 25.829L21.2464 28.8915C22.6941 29.6962 24.4365 28.493 24.197 26.8541L23.678 23.3033C26.3068 21.327 28 18.3212 28 14.9254C28 11.1403 25.9051 7.84471 22.7688 5.90843Z" fill="white"/>
</svg>
