<svg width="32" height="32" viewBox="0 0 32 32" fill="none" xmlns="http://www.w3.org/2000/svg">
<path fill-rule="evenodd" clip-rule="evenodd" d="M10.8724 5.00035C12.2163 4.97986 13.6803 5.99825 14.5822 8.00002L10.8571 8.00002L10.8556 8.00002C9.70115 7.99931 9 7.2069 9 6.50024C9 5.79327 9.70178 5.00046 10.8571 5.00046L10.8724 5.00035ZM16 10L16.001 10H21.1419L21.1429 10L21.1448 10H25C25.5523 10 26 10.4477 26 11V13C26 13.5523 25.5523 14 25 14H21H11H7C6.44772 14 6 13.5523 6 13V11C6 10.4477 6.44772 10 7 10H10.8552L10.8571 10L10.8581 10H15.999L16 10ZM11 16H8V24C8 25.6569 9.34315 27 11 27H21C22.6569 27 24 25.6569 24 24V16H21V22.382C21 23.8687 19.4354 24.8357 18.1056 24.1708L16 23.1181L13.8944 24.1708C12.5646 24.8357 11 23.8687 11 22.382V16ZM19 16H13V22.382L15.1056 21.3292C15.6686 21.0477 16.3314 21.0477 16.8944 21.3292L19 22.382V16ZM17.4178 8.00002L21.1429 8.00002L21.1444 8.00002C22.2989 7.99931 23 7.2069 23 6.50024C23 5.79327 22.2982 5.00046 21.1429 5.00046L21.1276 5.00035C19.7837 4.97986 18.3197 5.99825 17.4178 8.00002ZM25 6.50024C25 7.0489 24.8676 7.55414 24.6353 8.00002H25C26.6569 8.00002 28 9.34317 28 11V13C28 14.3062 27.1652 15.4175 26 15.8293V24C26 26.7614 23.7614 29 21 29H11C8.23858 29 6 26.7614 6 24V15.8293C4.83481 15.4175 4 14.3062 4 13V11C4 9.34317 5.34315 8.00002 7 8.00002H7.3647C7.13245 7.55414 7 7.0489 7 6.50024C7 4.44868 8.85182 3.00418 10.8494 3.00047C13.0069 2.97084 14.8326 4.34796 16 6.39344C17.1674 4.34796 18.9931 2.97084 21.1506 3.00047C23.1482 3.00418 25 4.44868 25 6.50024Z" fill="white"/>
</svg>
