<svg width="33" height="32" viewBox="0 0 33 32" fill="none" xmlns="http://www.w3.org/2000/svg">
<path fill-rule="evenodd" clip-rule="evenodd" d="M11.5 3C12.0523 3 12.5 3.44772 12.5 4V5H20.5V4C20.5 3.44772 20.9477 3 21.5 3C22.0523 3 22.5 3.44772 22.5 4V5H23.5C26.2614 5 28.5 7.23858 28.5 10V11V12V23C28.5 25.7614 26.2614 28 23.5 28H9.5C6.73858 28 4.5 25.7614 4.5 23V12V11V10C4.5 7.23858 6.73858 5 9.5 5H10.5V4C10.5 3.44772 10.9477 3 11.5 3ZM6.5 13V23C6.5 24.6569 7.84315 26 9.5 26H23.5C25.1569 26 26.5 24.6569 26.5 23V13H6.5ZM26.5 11H6.5V10C6.5 8.34315 7.84315 7 9.5 7H10.5V8C10.5 8.55228 10.9477 9 11.5 9C12.0523 9 12.5 8.55228 12.5 8V7H20.5V8C20.5 8.55228 20.9477 9 21.5 9C22.0523 9 22.5 8.55228 22.5 8V7H23.5C25.1569 7 26.5 8.34315 26.5 10V11ZM8.5 17C8.5 15.8954 9.39543 15 10.5 15H13.5C14.6046 15 15.5 15.8954 15.5 17V20C15.5 21.1046 14.6046 22 13.5 22H10.5C9.39543 22 8.5 21.1046 8.5 20V17ZM13.5 17H10.5V20H13.5V17Z" fill="white"/>
</svg>
