<svg width="70" height="31" viewBox="0 0 70 31" fill="none" xmlns="http://www.w3.org/2000/svg">
<path d="M20.7761 5.37404C23.1816 5.37404 24.9231 7.05195 24.9231 9.77457C24.9231 12.4972 23.1816 14.2069 20.7761 14.2069C18.893 14.2069 17.6101 13.1469 17.136 11.8322V14.0796H16.4238V2.36719H17.136V7.74879C17.643 6.41875 18.9083 5.37404 20.7761 5.37404ZM20.6652 5.99187C18.6713 5.99187 17.136 7.47993 17.136 9.77457C17.136 12.0692 18.6713 13.5737 20.6652 13.5737C22.6592 13.5737 24.1944 12.1493 24.1944 9.77457C24.1944 7.39982 22.7536 5.99187 20.6652 5.99187Z" fill="white"/>
<path d="M30.8117 14.2079C28.4062 14.2079 26.6328 12.53 26.6328 9.77553C26.6328 7.02108 28.3744 5.375 30.8117 5.375C33.3916 5.375 34.816 7.21093 34.816 9.20489C34.816 9.58459 34.8161 9.77444 34.7842 10.0598H27.3604C27.424 12.4499 29.0383 13.589 30.8106 13.589C32.5829 13.589 33.7231 12.6869 34.0084 11.2625H34.7524C34.4199 12.9558 33.0108 14.2068 30.8117 14.2068V14.2079ZM27.3615 9.47485H34.1038C34.2147 7.08473 32.5368 5.97637 30.7952 5.97637C29.0537 5.97637 27.4394 7.1001 27.3604 9.47485H27.3615Z" fill="white"/>
<path d="M40.6744 5.37219C42.574 5.37219 43.8404 6.43227 44.3144 7.73048V5.48303H45.0266V14.0778H44.3144V11.8139C43.8393 13.1274 42.5575 14.204 40.6744 14.204C38.2689 14.204 36.5273 12.4789 36.5273 9.77163C36.5273 7.06437 38.2689 5.37109 40.6744 5.37109V5.37219ZM40.7688 5.99002C38.6958 5.99002 37.2549 7.39907 37.2549 9.77272C37.2549 12.1464 38.6958 13.5719 40.7688 13.5719C42.8417 13.5719 44.3144 12.1003 44.3144 9.77272C44.3144 7.44516 42.7792 5.99002 40.7688 5.99002Z" fill="white"/>
<path d="M54.8887 14.0791H54.1765V12.2114C53.6859 13.5568 52.4349 14.2218 51.0269 14.2218C49.112 14.2218 47.5449 13.0827 47.5449 10.4863V5.48438H48.2418V10.4391C48.2418 12.5439 49.3973 13.6051 51.1224 13.6051C52.8475 13.6051 54.1775 12.4813 54.1775 10.0912V5.48547H54.8898V14.0802L54.8887 14.0791Z" fill="white"/>
<path d="M57.8334 6.10242H56.5352V5.48459H57.8334V3.30078H58.5456V5.48459H61.0937V6.10242H58.5456V11.7847C58.5456 13.0829 58.9725 13.4462 60.128 13.4462H61.0937V14.0793H60.0172C58.5456 14.0793 57.8334 13.478 57.8334 11.7847V6.10242Z" fill="white"/>
<path d="M68.9615 5.48438H69.6891L64.6872 18.1153H63.9596L65.5585 14.0791L61.9492 5.48438H62.7251L65.9536 13.2879L68.9615 5.48438Z" fill="white"/>
<path d="M6.91318 27.0505C5.03006 27.0505 3.70002 26.1957 3.54199 24.6132H4.26956C4.3804 25.7051 5.28245 26.4338 6.91318 26.4338C8.25858 26.4338 9.0498 25.6426 9.0498 24.7087C9.0498 22.334 3.77903 23.7112 3.77903 20.4508C3.77903 19.2481 4.94995 18.2188 6.62785 18.2188C8.4166 18.2188 9.60288 19.1526 9.69835 20.7515H8.98615C8.9225 19.675 8.13128 18.8201 6.61139 18.8201C5.36147 18.8201 4.49014 19.5641 4.49014 20.4508C4.49014 23.1098 9.71372 21.7008 9.74444 24.7087C9.74444 26.0541 8.55707 27.0516 6.91098 27.0516L6.91318 27.0505Z" fill="white"/>
<path d="M17.8667 18.2812H19.0069L13.8788 30.9912H12.7232L14.4011 26.876L10.8555 18.2812H12.0747L15.019 25.6568L17.8678 18.2812H17.8667Z" fill="white"/>
<path d="M23.5339 27.0685C21.5082 27.0685 20.0838 25.9601 19.9883 24.3777H21.4763C21.5554 25.2161 22.2994 25.8493 23.5186 25.8493C24.6588 25.8493 25.292 25.2797 25.292 24.5675C25.292 22.6361 20.1639 23.7598 20.1639 20.5313C20.1639 19.2013 21.4149 18.1094 23.3452 18.1094C25.2755 18.1094 26.5265 19.1387 26.622 20.832H25.1811C25.1175 19.9618 24.4536 19.3286 23.298 19.3286C22.2368 19.3286 21.6047 19.8356 21.6047 20.5313C21.6047 22.5889 26.6385 21.4652 26.701 24.5675C26.701 25.9919 25.4511 27.0685 23.535 27.0685H23.5339Z" fill="white"/>
<path d="M28.9794 19.6752H27.9512V18.2036H28.9794V16.0352H30.8V18.2036H32.9213V19.6752H30.8V24.5026C30.8 25.1512 31.0535 25.4211 31.8129 25.4211H32.9213V26.9246H31.4968C29.9451 26.9246 28.9805 26.276 28.9805 24.5026V19.6752H28.9794Z" fill="white"/>
<path d="M38.3195 27.0652C35.7713 27.0652 33.9189 25.2929 33.9189 22.5385C33.9189 19.784 35.7231 18.0117 38.3195 18.0117C40.9159 18.0117 42.641 19.7368 42.641 22.3486C42.641 22.6339 42.6256 22.9182 42.5774 23.2035H36.1675C36.2783 24.5017 37.165 25.2293 38.2723 25.2293C39.2226 25.2293 39.745 24.7541 40.0292 24.1692H42.4193C41.9442 25.7834 40.4879 27.0652 38.3195 27.0652ZM36.1818 21.7154H40.3442C40.3123 20.5599 39.3938 19.8323 38.2547 19.8323C37.1947 19.8323 36.3552 20.5127 36.1818 21.7154Z" fill="white"/>
<path d="M56.3165 22.1306C56.3165 20.975 55.6515 20.3418 54.6233 20.3418C53.595 20.3418 52.93 20.975 52.93 22.1306V26.9262H50.2392V22.1306C50.2392 20.975 49.5742 20.3418 48.5459 20.3418C47.5177 20.3418 46.8527 20.975 46.8527 22.1306V26.9262H44.1465V18.0944H46.8527V19.2027C47.375 18.4905 48.2771 18 49.4326 18C50.7626 18 51.8381 18.586 52.4406 19.6461C53.0266 18.7122 54.1338 18 55.4156 18C57.6005 18 59.0084 19.3926 59.0084 21.7673V26.9273H56.3176V22.1317L56.3165 22.1306Z" fill="white"/>
<path d="M64.0893 17.9336C65.3557 17.9336 66.2424 18.4878 66.7011 19.279V18.0444H69.8035V26.9245H66.7011V25.69C66.2424 26.4812 65.3404 27.0353 64.0893 27.0353C61.9845 27.0353 60.3066 25.3103 60.3066 22.4768C60.3066 19.6433 61.9845 17.9347 64.0893 17.9347V17.9336ZM65.0869 20.6398C64.2002 20.6398 63.4726 21.273 63.4726 22.4757C63.4726 23.6784 64.2002 24.3281 65.0869 24.3281C65.9736 24.3281 66.7011 23.6795 66.7011 22.4757C66.7011 21.2719 65.9571 20.6398 65.0869 20.6398Z" fill="white"/>
<path d="M6.19914 8.50391L4.57719 11.2715C4.23261 11.8597 4.22932 12.5653 4.56841 13.1568C4.90751 13.7483 5.51766 14.1017 6.19914 14.1017C6.88062 14.1017 7.49076 13.7483 7.82986 13.1568C8.16895 12.5653 8.16566 11.8597 7.82108 11.2715L6.19914 8.50391Z" fill="white"/>
<g opacity="0.7">
<path d="M6.19914 0.34375C5.51656 0.34375 4.90751 0.697108 4.56841 1.2886C4.22932 1.88009 4.23261 2.58572 4.57719 3.17392L6.19914 5.94154L7.82108 3.17392C8.16566 2.58572 8.16895 1.88009 7.82986 1.2886C7.49076 0.697108 6.88062 0.34375 6.19914 0.34375Z" fill="white"/>
</g>
<g opacity="0.5">
<path d="M1.98051 7.86328C1.32208 7.86328 0.639501 8.21554 0.29931 8.80704C-0.0397837 9.39743 -0.0639255 10.102 0.279558 10.6902C0.619749 11.2751 1.21453 11.624 1.89053 11.624C2.56652 11.624 3.18435 11.2663 3.52235 10.6671L5.15087 7.87206L1.97942 7.86547V7.86328H1.98051Z" fill="white"/>
</g>
<g opacity="0.8">
<path d="M7.30566 6.57729L10.5133 6.58498C11.1992 6.58498 11.8083 6.23271 12.1484 5.64122C12.4875 5.05083 12.4853 4.3463 12.143 3.7581C11.8028 3.17319 11.1948 2.82422 10.5188 2.82422C9.84283 2.82422 9.21842 3.18197 8.88042 3.78114L7.30676 6.5762L7.30566 6.57729Z" fill="white"/>
</g>
<g opacity="0.6">
<path d="M0.252008 5.63512C0.591102 6.22661 1.20125 6.57997 1.88273 6.57997L5.0915 6.57778L3.52223 3.78053C3.18533 3.17916 2.57189 2.82031 1.88273 2.82031C1.19357 2.82031 0.602076 3.16819 0.260787 3.7509C-0.0837931 4.3391 -0.0870855 5.04362 0.252008 5.63512Z" fill="white"/>
</g>
<g opacity="0.9">
<path d="M10.5135 7.98675H10.5124L7.30469 7.92969L8.87396 10.6973C9.21086 11.2987 9.8243 11.6422 10.5135 11.6422C11.2026 11.6422 11.7941 11.2866 12.1354 10.7039C12.48 10.1157 12.4833 9.46603 12.1431 8.87454C11.804 8.28305 11.1938 7.98565 10.5124 7.98565L10.5135 7.98675Z" fill="white"/>
</g>
</svg>
