<svg width="22" height="22" viewBox="0 0 22 22" fill="none" xmlns="http://www.w3.org/2000/svg">
<path d="M8.8125 1.32129C10.0684 1.2378 11.375 1.22732 12.6455 1.29004L13.1875 1.32129C17.3633 1.59899 20.7121 4.87514 21.1738 9.04785L21.209 9.45508C21.2497 10.0858 21.2606 10.7331 21.2402 11.3721L21.209 12.0068C20.9357 16.2353 17.7093 19.6345 13.5889 20.1035L13.1875 20.1396C11.929 20.2232 10.6221 20.2335 9.35352 20.1709L8.8125 20.1396C8.36172 20.1096 7.8755 20.0128 7.43457 19.8545L7.24902 19.7822C7.01475 19.6857 6.8425 19.6149 6.71289 19.5674L6.46973 19.4785L6.25684 19.625L5.89746 19.8857C5.18928 20.4079 4.29589 20.7797 2.99316 20.748H2.99414C2.97949 20.7477 2.96307 20.7474 2.94629 20.7471H2.94727C2.7328 20.7419 2.54092 20.7365 2.37891 20.7188L2.22656 20.6963C2.03902 20.66 1.86842 20.5875 1.74805 20.4326L1.69922 20.3613C1.60406 20.199 1.60101 20.0272 1.63867 19.8584L1.6875 19.6914C1.72442 19.5881 1.77694 19.4728 1.83984 19.3447L2.05762 18.9219L2.0791 18.8809C2.3274 18.4103 2.49994 17.9573 2.57129 17.5371C2.63371 17.1693 2.62211 16.8022 2.49121 16.4707L2.42773 16.3301L2.41504 16.3066L2.40039 16.2842L2.10352 15.8154C1.47527 14.7762 0.960083 13.586 0.817383 12.3047L0.791016 12.0068C0.750262 11.3761 0.739384 10.7288 0.759766 10.0898L0.791016 9.45508C1.06429 5.22656 4.29066 1.82634 8.41113 1.35742L8.8125 1.32129ZM13.1543 1.82031C11.9153 1.73795 10.628 1.72837 9.37891 1.79004L8.8457 1.82031C4.91741 2.08157 1.75872 5.16527 1.32324 9.10352L1.29004 9.4873C1.25035 10.1018 1.23991 10.7327 1.25977 11.3555L1.29004 11.9746C1.37393 13.2727 1.88765 14.4978 2.5459 15.5811L2.83594 16.0361V16.0371L2.84668 16.0537C3.31394 16.8997 3.09059 17.8963 2.69824 18.7559L2.52148 19.1143C2.44043 19.2678 2.37005 19.4007 2.31152 19.5176L1.96289 20.2139L2.74219 20.2412L3.00586 20.248C4.04321 20.2732 4.77396 20.0211 5.3584 19.6494L5.60059 19.4834L5.61816 19.4707L6.05371 19.1592C6.13549 19.1062 6.22546 19.0532 6.31934 19.0234L6.41504 19.0029C6.47417 18.9957 6.54507 19.0008 6.62402 19.0176L6.83398 19.0801H6.83496C6.98268 19.132 7.17576 19.2119 7.41992 19.3125V19.3115L7.43848 19.3203H7.43945C7.76433 19.4541 8.131 19.5498 8.49023 19.6025L8.8457 19.6406C10.0821 19.7228 11.3691 19.7336 12.6201 19.6719L13.1543 19.6406C17.0824 19.3793 20.2412 16.2965 20.6768 12.3584L20.71 11.9746C20.7497 11.3602 20.7601 10.7292 20.7402 10.1064L20.71 9.4873C20.4521 5.4962 17.4085 2.29586 13.5322 1.85449L13.1543 1.82031ZM7.5 13.25H14.5C14.6381 13.25 14.75 13.3619 14.75 13.5C14.75 13.6381 14.6381 13.75 14.5 13.75H7.5C7.36194 13.75 7.25 13.6381 7.25 13.5C7.25 13.3619 7.36194 13.25 7.5 13.25ZM7.5 8.25H11C11.1381 8.25 11.25 8.36194 11.25 8.5C11.25 8.63806 11.1381 8.75 11 8.75H7.5C7.36193 8.75 7.25 8.63807 7.25 8.5C7.25 8.36193 7.36193 8.25 7.5 8.25Z" stroke="#416974"/>
</svg>
