<svg width="33" height="33" viewBox="0 0 33 33" fill="none" xmlns="http://www.w3.org/2000/svg">
<path fill-rule="evenodd" clip-rule="evenodd" d="M11.3724 5.8441C12.7163 5.82361 14.1803 6.842 15.0822 8.84377L11.3571 8.84377L11.3556 8.84377C10.2011 8.84306 9.5 8.05065 9.5 7.34399C9.5 6.63702 10.2018 5.84421 11.3571 5.84421L11.3724 5.8441ZM16.5 10.8438L16.501 10.8438H21.6419L21.6429 10.8438L21.6448 10.8438H25.5C26.0523 10.8438 26.5 11.2915 26.5 11.8438V13.8438C26.5 14.3961 26.0523 14.8438 25.5 14.8438H21.5H11.5H7.5C6.94772 14.8438 6.5 14.3961 6.5 13.8438V11.8438C6.5 11.2915 6.94772 10.8438 7.5 10.8438H11.3552L11.3571 10.8438L11.3581 10.8438H16.499L16.5 10.8438ZM11.5 16.8438H8.5V24.8438C8.5 26.5006 9.84315 27.8438 11.5 27.8438H21.5C23.1569 27.8438 24.5 26.5006 24.5 24.8438V16.8438H21.5V23.2257C21.5 24.7125 19.9354 25.6795 18.6056 25.0146L16.5 23.9618L14.3944 25.0146C13.0646 25.6795 11.5 24.7125 11.5 23.2257V16.8438ZM19.5 16.8438H13.5V23.2257L15.6056 22.173C16.1686 21.8914 16.8314 21.8914 17.3944 22.173L19.5 23.2257V16.8438ZM17.9178 8.84377L21.6429 8.84377L21.6444 8.84377C22.7989 8.84306 23.5 8.05065 23.5 7.34399C23.5 6.63702 22.7982 5.84421 21.6429 5.84421L21.6276 5.8441C20.2837 5.82361 18.8197 6.842 17.9178 8.84377ZM25.5 7.34399C25.5 7.89265 25.3676 8.39789 25.1353 8.84377H25.5C27.1569 8.84377 28.5 10.1869 28.5 11.8438V13.8438C28.5 15.15 27.6652 16.2612 26.5 16.6731V24.8438C26.5 27.6052 24.2614 29.8438 21.5 29.8438H11.5C8.73858 29.8438 6.5 27.6052 6.5 24.8438V16.6731C5.33481 16.2612 4.5 15.15 4.5 13.8438V11.8438C4.5 10.1869 5.84315 8.84377 7.5 8.84377H7.8647C7.63245 8.39789 7.5 7.89265 7.5 7.34399C7.5 5.29243 9.35182 3.84793 11.3494 3.84422C13.5069 3.81459 15.3326 5.19171 16.5 7.23719C17.6674 5.19171 19.4931 3.81459 21.6506 3.84422C23.6482 3.84793 25.5 5.29243 25.5 7.34399Z" fill="#90A6A9"/>
</svg>
