<svg width="24" height="24" viewBox="0 0 24 24" fill="none" xmlns="http://www.w3.org/2000/svg">
<path fill-rule="evenodd" clip-rule="evenodd" d="M10.2444 3.1737C6.03342 4.01101 3.00031 7.70632 3 11.9997C2.99983 14.3866 3.94788 16.6758 5.63558 18.3636C8.67134 21.3997 13.429 21.8685 16.999 19.4834C20.569 17.0984 21.957 12.5236 20.3142 8.55693C18.6715 4.59024 14.4554 2.33638 10.2444 3.1737ZM9.53035 8.46969C9.23746 8.17678 8.76259 8.17677 8.46969 8.46965C8.17678 8.76253 8.17677 9.23741 8.46965 9.53031L10.9393 12.0002L8.46969 14.4697C8.17678 14.7625 8.17677 15.2374 8.46965 15.5303C8.76253 15.8232 9.23741 15.8232 9.53031 15.5303L12 13.0608L14.4697 15.5303C14.7626 15.8232 15.2375 15.8232 15.5303 15.5303C15.8232 15.2374 15.8232 14.7625 15.5303 14.4697L13.0607 12.0002L15.5303 9.53031C15.8232 9.23741 15.8232 8.76253 15.5303 8.46965C15.2374 8.17677 14.7625 8.17678 14.4697 8.46969L12 10.9395L9.53035 8.46969Z" fill="#486C72" fill-opacity="0.5"/>
</svg>
