<svg width="147" height="148" viewBox="0 0 147 148" fill="none" xmlns="http://www.w3.org/2000/svg">
<g clip-path="url(#clip0_297_48412)">
<path fill-rule="evenodd" clip-rule="evenodd" d="M26.0039 24.2873C23.7492 22.7952 20.7028 23.4 19.1996 25.6381C17.6964 27.8762 18.3057 30.9001 20.5605 32.3922L32.1716 40.0758C33.1728 40.7384 33.8939 41.743 34.1976 42.8988L46.0607 88.0382C47.7516 94.472 53.6054 98.9613 60.304 98.9613H106.305C113.121 98.9613 119.046 94.3162 120.624 87.7343L128.218 56.0763C130.42 46.8949 123.407 38.0806 113.898 38.0806H57.6289C54.9191 38.0806 52.7223 40.2612 52.7223 42.9511C52.7223 45.641 54.9191 47.8216 57.6289 47.8216H113.898C117.068 47.8216 119.406 50.7596 118.672 53.8201L111.078 85.4781C110.552 87.6721 108.577 89.2204 106.305 89.2204H60.304C58.0712 89.2204 56.1199 87.724 55.5563 85.5794L43.6932 40.44C42.7819 36.9726 40.6188 33.9586 37.615 31.9708L26.0039 24.2873ZM51.4956 113.573C51.4956 107.537 56.4552 102.614 62.5356 102.614C68.6161 102.614 73.5757 107.537 73.5757 113.573C73.5757 119.608 68.6161 124.531 62.5356 124.531C56.4552 124.531 51.4956 119.608 51.4956 113.573ZM62.5356 109.92C60.52 109.92 58.8556 111.572 58.8556 113.573C58.8556 115.573 60.52 117.226 62.5356 117.226C64.5512 117.226 66.2156 115.573 66.2156 113.573C66.2156 111.572 64.5512 109.92 62.5356 109.92ZM89.5224 113.573C89.5224 107.537 94.482 102.614 100.562 102.614C106.643 102.614 111.602 107.537 111.602 113.573C111.602 119.608 106.643 124.531 100.562 124.531C94.482 124.531 89.5224 119.608 89.5224 113.573ZM100.562 109.92C98.5468 109.92 96.8824 111.572 96.8824 113.573C96.8824 115.573 98.5468 117.226 100.562 117.226C102.578 117.226 104.242 115.573 104.242 113.573C104.242 111.572 102.578 109.92 100.562 109.92Z" fill="#486C72" fill-opacity="0.5"/>
<path d="M94.3134 20.5104C92.9667 21.8546 92.9647 24.0361 94.309 25.3828C95.6532 26.7295 97.8347 26.7315 99.1814 25.3872L112.186 12.4061C113.533 11.0618 113.535 8.88036 112.191 7.53365C110.847 6.18694 108.665 6.18494 107.318 7.52919L94.3134 20.5104Z" fill="#486C72" fill-opacity="0.5"/>
<path d="M73.3584 20.5104C74.7051 21.8546 74.7071 24.0361 73.3629 25.3828C72.0187 26.7295 69.8372 26.7315 68.4905 25.3872L55.4855 12.4061C54.1388 11.0618 54.1368 8.88036 55.481 7.53365C56.8253 6.18694 59.0067 6.18494 60.3535 7.52919L73.3584 20.5104Z" fill="#486C72" fill-opacity="0.5"/>
<path d="M87.2812 22.3203C87.2812 24.2231 85.7387 25.7656 83.8359 25.7656C81.9331 25.7656 80.3906 24.2231 80.3906 22.3203V3.94531C80.3906 2.04252 81.9331 0.5 83.8359 0.5C85.7387 0.5 87.2812 2.04252 87.2812 3.94531V22.3203Z" fill="#486C72" fill-opacity="0.5"/>
</g>
<defs>
<clipPath id="clip0_297_48412">
<rect width="147" height="147" fill="white" transform="translate(0 0.5)"/>
</clipPath>
</defs>
</svg>
