<svg width="18" height="18" viewBox="0 0 18 18" fill="none" xmlns="http://www.w3.org/2000/svg">
<path d="M10.1662 3.22482L11.354 5.62019C11.516 5.95364 11.948 6.27347 12.3124 6.33472L14.4654 6.69538C15.8423 6.92676 16.1662 7.9339 15.1741 8.92743L13.5003 10.6151C13.2168 10.9009 13.0616 11.4521 13.1493 11.8468L13.6285 13.9359C14.0065 15.5896 13.1358 16.2292 11.6847 15.365L9.66671 14.1605C9.30225 13.9427 8.70157 13.9427 8.33036 14.1605L6.31233 15.365C4.86799 16.2292 3.99059 15.5828 4.36855 13.9359L4.84774 11.8468C4.93548 11.4521 4.78025 10.9009 4.49678 10.6151L2.82297 8.92743C1.83757 7.9339 2.15479 6.92676 3.53164 6.69538L5.68465 6.33472C6.04236 6.27347 6.47431 5.95364 6.63629 5.62019L7.82416 3.22482C8.47209 1.92506 9.52498 1.92506 10.1662 3.22482Z" fill="#486C72"/>
</svg>
