<svg width="18" height="18" viewBox="0 0 18 18" fill="none" xmlns="http://www.w3.org/2000/svg">
<path fill-rule="evenodd" clip-rule="evenodd" d="M8.99899 2.25C9.70337 2.25 10.2409 2.78113 10.5743 3.45674L11.6649 5.65606C11.6892 5.70611 11.7554 5.7905 11.8644 5.8716C11.9732 5.95252 12.0742 5.99257 12.1307 6.0021L14.1043 6.33271C14.8345 6.45543 15.4761 6.81879 15.6862 7.47762C15.896 8.13577 15.5843 8.80429 15.0595 9.33022L15.0587 9.33095L13.5257 10.8766C13.4797 10.9231 13.4185 11.0223 13.379 11.1612C13.34 11.2988 13.3386 11.4178 13.3534 11.4861L13.3537 11.4875L13.7923 13.3993C13.976 14.2033 13.9269 15.0485 13.3149 15.4983C12.7005 15.9499 11.8804 15.7384 11.1738 15.3176L9.32374 14.2133C9.26501 14.1782 9.1502 14.1432 9.00208 14.1432C8.85549 14.1432 8.73759 14.1776 8.67322 14.2149L8.67188 14.2156L6.82623 15.3173L6.8257 15.3176C6.11962 15.7399 5.30085 15.9476 4.68675 15.4959C4.07536 15.0461 4.02288 14.2027 4.20736 13.3988L4.64577 11.4875L4.64607 11.4861C4.6609 11.4178 4.65957 11.2989 4.6205 11.1612C4.58106 11.0223 4.51987 10.9231 4.47377 10.8766L2.93944 9.32959C2.41784 8.80368 2.10724 8.13576 2.31536 7.47863C2.52416 6.81935 3.16469 6.45548 3.89551 6.33267L5.86711 6.00239L5.86779 6.00228C5.92077 5.99301 6.02004 5.9536 6.12868 5.87238C6.23765 5.79092 6.30402 5.70628 6.32841 5.65606L6.33044 5.65194L7.41932 3.45618L7.41984 3.45513C7.75633 2.78012 8.29545 2.25 8.99899 2.25ZM7.3392 6.14996C7.21499 6.40437 7.00976 6.61832 6.80229 6.77342C6.59433 6.92889 6.33205 7.06416 6.05696 7.11126L6.05497 7.1116L4.08166 7.44216C3.5506 7.53146 3.41415 7.73528 3.38786 7.8183C3.36088 7.90348 3.35653 8.15255 3.7382 8.53737L5.27253 10.0844C5.48628 10.2999 5.62617 10.5843 5.70273 10.854C5.7794 11.124 5.80925 11.438 5.74396 11.7316L5.74314 11.7353L5.30387 13.6504C5.1419 14.3561 5.31831 14.5638 5.35343 14.5897C5.3857 14.6134 5.63081 14.7215 6.24859 14.3519L8.10264 13.2453C8.37885 13.0832 8.70579 13.0182 9.00208 13.0182C9.29779 13.0182 9.62524 13.083 9.90055 13.2475L11.7499 14.3513C12.3735 14.7226 12.618 14.6144 12.6486 14.5919C12.6809 14.5681 12.8512 14.37 12.705 13.6923C12.6101 13.2529 12.5078 12.8149 12.4055 12.3771C12.3552 12.162 12.3049 11.9469 12.2555 11.7316C12.1903 11.438 12.2201 11.124 12.2968 10.854C12.3734 10.5843 12.5132 10.2999 12.727 10.0844L14.2613 8.53737L14.2627 8.53601C14.6468 8.15132 14.641 7.90318 14.6143 7.81931C14.5877 7.73584 14.4498 7.53161 13.9181 7.44221L11.9446 7.1116C11.6669 7.06494 11.4026 6.93026 11.1929 6.77421C10.9839 6.61874 10.7784 6.40454 10.6541 6.14996L9.56562 3.95494C9.31127 3.43934 9.07242 3.375 8.99899 3.375C8.92455 3.375 8.68428 3.44055 8.42694 3.9565L7.3392 6.14996Z" fill="#486C72"/>
</svg>
