<svg width="261" height="28" viewBox="0 0 261 28" fill="none" xmlns="http://www.w3.org/2000/svg">
<path d="M8.53497 5.33153C12.9754 5.33153 16.1876 8.30538 16.1876 13.1335C16.1876 17.9617 12.9754 20.9934 8.53497 20.9934C5.05786 20.9934 2.69163 19.1131 1.81558 16.7843V20.7707H0.5V0H1.81558V9.54351C2.74883 7.18584 5.08797 5.33442 8.53497 5.33442V5.33153ZM8.33025 6.42503C4.64844 6.42503 1.81558 9.06331 1.81558 13.1335C1.81558 17.2038 4.64844 19.871 8.33025 19.871C12.0121 19.871 14.8449 17.3455 14.8449 13.1335C14.8449 8.92156 12.1867 6.42503 8.33025 6.42503Z" fill="#406E75"/>
<path d="M27.0554 20.9934C22.615 20.9934 19.3456 18.0196 19.3456 13.1336C19.3456 8.24754 22.5578 5.33154 27.0554 5.33154C31.815 5.33154 34.4461 8.586 34.4461 12.124C34.4461 12.798 34.4461 13.1336 34.3889 13.6398H20.6913C20.8087 17.8778 23.786 19.8999 27.0584 19.8999C30.3308 19.8999 32.4321 18.3002 32.959 15.7747H34.3317C33.7176 18.7775 31.1196 20.9963 27.0584 20.9963L27.0554 20.9934ZM20.6883 12.6013H33.1306C33.3353 8.36324 30.2375 6.399 27.0253 6.399C23.8131 6.399 20.8328 8.39217 20.6883 12.6013Z" fill="#406E75"/>
<path d="M45.2538 5.33154C48.758 5.33154 51.0971 7.21189 51.9732 9.5146V5.52825H53.2887V20.7678H51.9732V16.7554C51.0971 19.0842 48.7309 20.9934 45.2538 20.9934C40.8133 20.9934 37.6011 17.9328 37.6011 13.1336C37.6011 8.33432 40.8133 5.33154 45.2538 5.33154ZM45.4314 6.42504C41.6051 6.42504 38.9468 8.92446 38.9468 13.1336C38.9468 17.3427 41.6051 19.871 45.4314 19.871C49.2577 19.871 51.9732 17.2617 51.9732 13.1336C51.9732 9.00546 49.1403 6.42504 45.4314 6.42504Z" fill="#406E75"/>
<path d="M71.4871 20.7678H70.1715V17.4555C69.2653 19.8421 66.9593 21.0195 64.3582 21.0195C60.8239 21.0195 57.9309 18.9974 57.9309 14.3949V5.52539H59.2163V14.311C59.2163 18.0428 61.3478 19.926 64.5329 19.926C67.7179 19.926 70.1715 17.9328 70.1715 13.6948V5.52829H71.4871V20.7678Z" fill="#406E75"/>
<path d="M76.921 6.62181H74.5247V5.52832H76.921V1.65479H78.2366V5.52832H82.9389V6.62181H78.2366V16.6976C78.2366 19.0003 79.0253 19.6454 81.1567 19.6454H82.9389V20.7679H80.952C78.2366 20.7679 76.921 19.7004 76.921 16.6976V6.62181Z" fill="#406E75"/>
<path d="M97.4555 5.52832H98.7981L89.568 27.9277H88.2253L91.1756 20.7707L84.5164 5.53122H85.9464L91.9041 19.3677L97.4555 5.53122V5.52832Z" fill="#406E75"/>
<path d="M144.443 21.011C140.966 21.011 138.512 19.4952 138.22 16.6891H139.563C139.768 18.6244 141.433 19.9175 144.44 19.9175C146.924 19.9175 148.384 18.5145 148.384 16.8569C148.384 12.6478 138.657 15.0894 138.657 9.30655C138.657 7.17452 140.818 5.34912 143.913 5.34912C147.213 5.34912 149.404 7.00383 149.579 9.83882H148.263C148.146 7.92954 146.686 6.4137 143.883 6.4137C141.577 6.4137 139.969 7.73283 139.969 9.30365C139.969 14.019 149.609 11.5225 149.666 16.854C149.666 19.2406 147.475 21.0081 144.437 21.0081L144.443 21.011Z" fill="#406E75"/>
<path d="M164.655 5.46191H166.76L157.295 28.0001H155.163L158.261 20.7014L151.719 5.46191H153.968L159.402 18.5405L164.658 5.46191H164.655Z" fill="#406E75"/>
<path d="M175.114 21.0399C171.375 21.0399 168.747 19.0757 168.572 16.2696H171.318C171.465 17.7565 172.838 18.879 175.087 18.879C177.191 18.879 178.359 17.8694 178.359 16.6052C178.359 13.18 168.894 15.1732 168.894 9.44827C168.894 7.0906 171.203 5.15527 174.765 5.15527C178.326 5.15527 180.635 6.98066 180.81 9.98344H178.151C178.034 8.43866 176.809 7.31624 174.674 7.31624C172.717 7.31624 171.549 8.21302 171.549 9.44827C171.549 13.0962 180.837 11.103 180.954 16.6052C180.954 19.1306 178.648 21.0399 175.111 21.0399H175.114Z" fill="#406E75"/>
<path d="M185.163 7.93247H183.263V5.32312H185.163V1.47852H188.522V5.32312H192.436V7.93247H188.522V16.4924C188.522 17.6438 188.989 18.1211 190.392 18.1211H192.436V20.7883H189.808C186.945 20.7883 185.163 19.6369 185.163 16.4953V7.93535V7.93247Z" fill="#406E75"/>
<path d="M202.398 21.0402C197.695 21.0402 194.279 17.8957 194.279 13.0125C194.279 8.1294 197.608 4.98486 202.398 4.98486C207.187 4.98486 210.373 8.04549 210.373 12.6741C210.373 13.1803 210.342 13.6837 210.255 14.1899H198.427C198.632 16.4926 200.266 17.7828 202.31 17.7828C204.063 17.7828 205.026 16.941 205.553 15.9025H209.963C209.087 18.7664 206.399 21.0402 202.398 21.0402ZM198.454 11.5516H206.137C206.08 9.50349 204.385 8.21039 202.28 8.21039C200.324 8.21039 198.776 9.4167 198.454 11.5516Z" fill="#406E75"/>
<path d="M235.612 12.2832C235.612 10.2351 234.384 9.11262 232.487 9.11262C230.591 9.11262 229.363 10.2351 229.363 12.2832V20.7882H224.398V12.2832C224.398 10.2351 223.17 9.11262 221.273 9.11262C219.377 9.11262 218.149 10.2351 218.149 12.2832V20.7882H213.154V5.12628H218.149V7.09052C219.112 5.82635 220.777 4.9585 222.911 4.9585C225.365 4.9585 227.352 5.99704 228.462 7.87739C229.543 6.22268 231.587 4.9585 233.954 4.9585C237.985 4.9585 240.583 7.429 240.583 11.6381V20.7882H235.618V12.2832H235.612Z" fill="#406E75"/>
<path d="M249.954 4.84277C252.29 4.84277 253.928 5.82633 254.774 7.22937V5.03949H260.5V20.7853H254.774V18.5954C253.928 19.9984 252.263 20.982 249.954 20.982C246.068 20.982 242.973 17.9213 242.973 12.8994C242.973 7.87737 246.068 4.84277 249.954 4.84277ZM251.797 9.64491C250.162 9.64491 248.816 10.7673 248.816 12.8994C248.816 15.0314 250.159 16.1827 251.797 16.1827C253.434 16.1827 254.777 15.0314 254.777 12.8994C254.777 10.7673 253.404 9.64491 251.797 9.64491Z" fill="#406E75"/>
<path d="M118.83 15.1792L115.837 20.0855C115.202 21.1298 115.193 22.3795 115.819 23.4296C116.446 24.4797 117.571 25.1046 118.83 25.1046C120.088 25.1046 121.214 24.4768 121.84 23.4296C122.467 22.3795 122.461 21.1298 121.822 20.0855L118.83 15.1792Z" fill="#CCDC55"/>
<path opacity="0.7" d="M118.83 0.706055C117.572 0.706055 116.446 1.33381 115.819 2.38102C115.193 3.43112 115.199 4.68083 115.837 5.72515L118.83 10.6314L121.822 5.72515C122.458 4.68083 122.467 3.43112 121.84 2.38102C121.214 1.33091 120.088 0.706055 118.83 0.706055Z" fill="#CCDC55"/>
<path opacity="0.5" d="M110.97 14.0361C109.844 14.0361 108.534 14.661 107.908 15.7082C107.282 16.7554 107.258 18.0051 107.89 19.0466C108.519 20.0822 109.624 20.7013 110.873 20.7013C112.123 20.7013 113.267 20.0677 113.89 19.0032L116.858 14.0477L110.97 14.0361Z" fill="#CCDC55"/>
<path opacity="0.8" d="M120.874 11.7625L126.793 11.7769C128.06 11.7769 129.183 11.1521 129.809 10.1049C130.435 9.05766 130.432 7.80795 129.797 6.76653C129.168 5.73089 128.048 5.11182 126.802 5.11182C125.555 5.11182 124.402 5.74536 123.779 6.80993L120.874 11.7654V11.7625Z" fill="#CCDC55"/>
<path opacity="0.6" d="M107.857 10.0878C108.483 11.1379 109.609 11.7627 110.867 11.7627H116.789L113.893 6.79861C113.27 5.73115 112.138 5.09473 110.867 5.09473C109.597 5.09473 108.504 5.7109 107.875 6.74365C107.24 7.78796 107.234 9.03767 107.86 10.0849L107.857 10.0878Z" fill="#CCDC55"/>
<path opacity="0.9" d="M126.79 14.3458L120.871 14.2012L123.767 19.0872C124.39 20.1547 125.522 20.7535 126.793 20.7535C128.063 20.7535 129.156 20.1171 129.785 19.0843C130.42 18.04 130.426 16.9291 129.8 15.8819C129.174 14.8318 128.048 14.3458 126.79 14.3458Z" fill="#CCDC55"/>
</svg>
