<svg width="92" height="93" viewBox="0 0 92 93" fill="none" xmlns="http://www.w3.org/2000/svg">
<path d="M45.9841 55.2463L35.2031 73.6382C32.9114 77.5493 32.8885 82.2345 35.142 86.1685C37.3954 90.1025 41.4492 92.4502 45.9841 92.4502C50.5191 92.4502 54.5702 90.1025 56.8262 86.1685C59.0797 82.2345 59.0568 77.5493 56.7651 73.6382L45.9841 55.2463Z" fill="#CCDC55"/>
<path opacity="0.7" d="M45.9841 1C41.4492 1 37.398 3.34768 35.142 7.28426C32.8885 11.2183 32.9114 15.9035 35.2031 19.8146L45.9816 38.2065L56.7626 19.8146C59.0542 15.9035 59.0772 11.2183 56.8237 7.28426C54.5702 3.35023 50.5165 1.00254 45.9816 1.00254" fill="#CCDC55"/>
<path opacity="0.5" d="M17.6362 50.9634C13.4271 50.9634 8.8769 53.306 6.62088 57.2324C4.36486 61.1588 4.28847 65.8363 6.56741 69.75C8.83107 73.6356 12.8211 75.9528 17.3153 75.9528C21.8095 75.9528 25.9371 73.5745 28.1804 69.5896L38.8595 51.0143L17.6336 50.9736V50.9609" fill="#CCDC55"/>
<path opacity="0.8" d="M74.6987 17.4974C70.1255 17.4974 66.054 19.8757 63.8107 23.8606L53.348 42.4359L74.6656 42.4893C79.226 42.4893 83.2746 40.1467 85.5306 36.2204C87.7866 32.294 87.7713 27.6164 85.4924 23.7028C83.2287 19.8171 79.1929 17.5 74.6987 17.5" fill="#CCDC55"/>
<path opacity="0.6" d="M17.3001 17.4465C12.816 17.4465 8.78526 19.7586 6.51906 23.6315C4.22994 27.5426 4.20956 32.2252 6.46558 36.1567C8.7216 40.0882 12.7728 42.4359 17.3026 42.4359L38.6304 42.4206L28.2008 23.8276C25.96 19.8324 21.8834 17.4465 17.3001 17.4465Z" fill="#CCDC55"/>
<path opacity="0.9" d="M53.3378 51.3887L63.7674 69.8035C66.0081 73.7986 70.0848 76.0954 74.6681 76.0954C79.2514 76.0954 83.1829 73.7375 85.4491 69.8671C87.7382 65.956 87.7586 61.6095 85.5026 57.678C83.2466 53.7465 79.1954 51.735 74.6655 51.735H74.6554L53.3378 51.3912" fill="#CCDC55"/>
</svg>
