<svg width="33" height="33" viewBox="0 0 33 33" fill="none" xmlns="http://www.w3.org/2000/svg">
<path fill-rule="evenodd" clip-rule="evenodd" d="M3.5 10.8438C3.5 8.08233 5.73858 5.84375 8.5 5.84375H14.5C16.5503 5.84375 18.3124 7.07785 19.084 8.84375H23.4511C24.4364 8.84375 25.3588 9.32757 25.919 10.1381L28.6133 14.0367C29.1907 14.8722 29.5 15.8637 29.5 16.8793V20.8438C29.5 23.3728 27.6223 25.4634 25.1849 25.7972C24.6329 27.0047 23.4144 27.8438 22 27.8438C20.6038 27.8438 19.3985 27.0262 18.8368 25.8438H14.1632C13.6015 27.0262 12.3962 27.8438 11 27.8438C9.58557 27.8438 8.3671 27.0047 7.81514 25.7972C5.37774 25.4634 3.5 23.3728 3.5 20.8438V10.8438ZM19.5 21.8943V10.8438H23.4511C23.7795 10.8438 24.087 11.005 24.2737 11.2752L24.7347 11.9422C23.4485 12.2806 22.5 13.4514 22.5 14.8438V17.8438C22.5 19.5006 23.8431 20.8438 25.5 20.8438H27.5C27.5 22.1724 26.6363 23.2993 25.4397 23.6936C25.135 22.0713 23.7108 20.8438 22 20.8438C21.0207 20.8438 20.1353 21.246 19.5 21.8943ZM27.5 18.8438V16.8793C27.5 16.27 27.3144 15.675 26.968 15.1737L26.048 13.8426C26.0321 13.8434 26.0161 13.8438 26 13.8438H25.5C24.9477 13.8438 24.5 14.2915 24.5 14.8438V17.8438C24.5 18.396 24.9477 18.8438 25.5 18.8438H27.5ZM17.5 23.8438H14.4646C14.2219 22.1476 12.7632 20.8438 11 20.8438C9.28916 20.8438 7.86501 22.0713 7.56027 23.6936C6.3637 23.2993 5.5 22.1724 5.5 20.8438V10.8438C5.5 9.1869 6.84315 7.84375 8.5 7.84375H14.5C16.1569 7.84375 17.5 9.1869 17.5 10.8438V23.8438ZM11 22.8438C10.1716 22.8438 9.5 23.5153 9.5 24.3438C9.5 25.1722 10.1716 25.8438 11 25.8438C11.8284 25.8438 12.5 25.1722 12.5 24.3438C12.5 23.5153 11.8284 22.8438 11 22.8438ZM20.5 24.3438C20.5 23.5153 21.1716 22.8438 22 22.8438C22.8284 22.8438 23.5 23.5153 23.5 24.3438C23.5 25.1722 22.8284 25.8438 22 25.8438C21.1716 25.8438 20.5 25.1722 20.5 24.3438Z" fill="white"/>
</svg>
