<svg width="56" height="63" viewBox="0 0 56 63" fill="none" xmlns="http://www.w3.org/2000/svg">
<path d="M27.93 37.1211L20.6207 49.5904C19.067 52.2421 19.0515 55.4185 20.5793 58.0857C22.1071 60.7529 24.8554 62.3446 27.93 62.3446C31.0046 62.3446 33.7512 60.7529 35.2808 58.0857C36.8086 55.4185 36.793 52.2421 35.2393 49.5904L27.93 37.1211Z" fill="#486C72"/>
<path opacity="0.7" d="M27.93 0.347656C24.8554 0.347656 22.1088 1.93934 20.5793 4.60825C19.0515 7.27544 19.067 10.4519 20.6207 13.1035L27.9283 25.5729L35.2376 13.1035C36.7913 10.4519 36.8068 7.27544 35.279 4.60825C33.7512 1.94106 31.0029 0.349379 27.9283 0.349379" fill="#486C72"/>
<path opacity="0.5" d="M8.71075 34.2283C5.85712 34.2283 2.77216 35.8165 1.24263 38.4785C-0.286906 41.1405 -0.338694 44.3118 1.20638 46.9652C2.74109 49.5996 5.44625 51.1705 8.49323 51.1705C11.5402 51.1705 14.3386 49.5581 15.8595 46.8564L23.0998 34.2628L8.70903 34.2352V34.2266" fill="#486C72"/>
<path opacity="0.8" d="M47.3982 11.5352C44.2977 11.5352 41.5373 13.1476 40.0164 15.8493L32.9229 28.4429L47.3757 28.4791C50.4676 28.4791 53.2125 26.8909 54.742 24.2289C56.2715 21.5669 56.2612 18.3956 54.7161 15.7422C53.1814 13.1078 50.4452 11.5369 47.3982 11.5369" fill="#486C72"/>
<path opacity="0.6" d="M8.48307 11.5C5.443 11.5 2.71021 13.0675 1.17377 15.6933C-0.378205 18.3449 -0.392019 21.5196 1.13751 24.1851C2.66705 26.8506 5.41364 28.4422 8.48479 28.4422L22.9446 28.4319L15.8735 15.8262C14.3543 13.1176 11.5905 11.5 8.48307 11.5Z" fill="#486C72"/>
<path opacity="0.9" d="M32.916 34.5117L39.9871 46.9966C41.5063 49.7052 44.2701 51.2624 47.3775 51.2624C50.4849 51.2624 53.1504 49.6638 54.6868 47.0397C56.2388 44.3881 56.2526 41.4412 54.7231 38.7758C53.1935 36.1103 50.4469 34.7465 47.3758 34.7465H47.3689L32.916 34.5134" fill="#486C72"/>
</svg>
