<svg width="27" height="29" viewBox="0 0 27 29" fill="none" xmlns="http://www.w3.org/2000/svg">
<path d="M13.4943 17L10.0857 22.7398C9.36115 23.9604 9.35391 25.4226 10.0664 26.6504C10.7788 27.8781 12.0605 28.6108 13.4943 28.6108C14.9281 28.6108 16.2089 27.8781 16.9222 26.6504C17.6346 25.4226 17.6274 23.9604 16.9029 22.7398L13.4943 17Z" fill="white"/>
<path opacity="0.7" d="M13.4943 0.0742188C12.0605 0.0742188 10.7796 0.806897 10.0664 2.03544C9.35391 3.2632 9.36115 4.72538 10.0857 5.94598L13.4935 11.6858L16.902 5.94598C17.6266 4.72538 17.6338 3.2632 16.9214 2.03544C16.2089 0.807691 14.9273 0.0750118 13.4935 0.0750118" fill="white"/>
<path opacity="0.5" d="M4.53181 15.6688C3.20106 15.6688 1.76244 16.3999 1.04916 17.6252C0.335891 18.8506 0.31174 20.3104 1.03226 21.5318C1.74795 22.7444 3.00946 23.4676 4.43037 23.4676C5.85128 23.4676 7.15627 22.7254 7.86551 21.4817L11.2419 15.6847L4.531 15.6719V15.668" fill="white"/>
<path opacity="0.8" d="M22.5736 5.22266C21.1277 5.22266 19.8404 5.96487 19.1312 7.20852L15.8232 13.0056L22.5631 13.0223C24.005 13.0223 25.285 12.2912 25.9983 11.0658C26.7115 9.84044 26.7067 8.38064 25.9862 7.15925C25.2705 5.94659 23.9945 5.22345 22.5736 5.22345" fill="white"/>
<path opacity="0.6" d="M4.42665 5.20703C3.00896 5.20703 1.73457 5.92858 1.01807 7.13726C0.294333 8.35786 0.287891 9.81925 1.00116 11.0462C1.71444 12.2732 2.99527 13.0058 4.42745 13.0058L11.1705 13.0011L7.87306 7.19845C7.16462 5.95163 5.87574 5.20703 4.42665 5.20703Z" fill="white"/>
<path opacity="0.9" d="M15.8213 15.8008L19.1188 21.5478C19.8272 22.7946 21.1161 23.5114 22.5652 23.5114C24.0143 23.5114 25.2573 22.7755 25.9738 21.5676C26.6975 20.347 26.7039 18.9906 25.9907 17.7636C25.2774 16.5366 23.9966 15.9089 22.5644 15.9089H22.5612L15.8213 15.8016" fill="white"/>
</svg>
