<svg width="49" height="48" viewBox="0 0 49 48" fill="none" xmlns="http://www.w3.org/2000/svg">
<g clip-path="url(#clip0_318_47843)">
<path fill-rule="evenodd" clip-rule="evenodd" d="M24.3336 8.25172C24.3336 12.8091 21.6024 16.5034 18.2336 16.5034C14.8645 16.5034 12.1333 12.8091 12.1333 8.25172C12.1333 3.69439 14.8645 0 18.2336 0C21.6024 0 24.3336 3.69439 24.3336 8.25172ZM11.4474 25.9381C12.6808 24.924 13.7691 23.8268 14.8043 22.7831C17.6243 19.9401 20.0522 17.4925 23.9553 18.1921C28.6408 19.0323 29.8964 22.0139 31.447 25.6961C31.9221 26.8244 32.425 28.0189 33.0626 29.2374C33.6825 30.4216 34.3583 31.3314 35.0188 32.2213C35.9482 33.4729 36.848 34.684 37.52 36.5627C38.9583 40.5815 38.0128 45.4158 33.8057 47.287C30.2586 48.8647 27.5011 47.529 24.6122 46.1301C22.8294 45.2669 20.9967 44.3795 18.8979 44.1372C17.0179 43.9206 15.2306 44.0801 13.5442 44.2306C10.0213 44.5451 6.93852 44.8205 4.3688 41.5436C2.0439 38.5793 2.65351 34.046 4.96876 31.2396C6.33405 29.3905 8.09373 28.2323 9.60989 27.2339C10.2906 26.7856 10.9224 26.3697 11.4474 25.9381ZM29.7777 18.7553C32.9471 20.1308 37.041 17.7496 38.9223 13.4365C40.8032 9.12333 39.759 4.51177 36.5896 3.136C33.4203 1.76055 29.326 4.14207 27.4451 8.45519C25.5638 12.7683 26.6084 17.3799 29.7777 18.7553ZM45.9677 27.2763C43.4707 30.5413 39.4038 31.6334 36.884 29.7156C34.3641 27.7975 34.3455 23.596 36.8425 20.331C39.3398 17.066 43.4067 15.9743 45.9266 17.8921C48.4464 19.8098 48.4651 24.0113 45.9677 27.2763ZM7.66234 24.8007C10.7159 24.1926 12.5438 20.4645 11.745 16.4736C10.9462 12.483 7.82351 9.74078 4.76996 10.3489C1.71674 10.9567 -0.111147 14.6851 0.687304 18.6757C1.48608 22.6667 4.60879 25.4089 7.66234 24.8007Z" fill="black"/>
</g>
<defs>
<clipPath id="clip0_318_47843">
<rect width="48" height="48" fill="white" transform="translate(0.5)"/>
</clipPath>
</defs>
</svg>
