<svg width="83" height="44" viewBox="0 0 83 44" fill="none" xmlns="http://www.w3.org/2000/svg">
<path d="M6.71713 5.36699C10.4296 5.36699 13.116 7.95657 13.116 12.1554C13.116 16.3543 10.4296 18.9922 6.71713 18.9922C3.81181 18.9922 1.83334 17.355 1.1 15.3281V18.7962H0V0.725098H1.1V9.02857C1.88171 6.97625 3.83472 5.36444 6.71713 5.36444V5.36699ZM6.54653 6.3193C3.4706 6.3193 1.1 8.61351 1.1 12.1554C1.1 15.6973 3.46805 18.017 6.54653 18.017C9.625 18.017 11.9931 15.8195 11.9931 12.1554C11.9931 8.49129 9.77014 6.3193 6.54653 6.3193Z" fill="#CCDC55"/>
<path d="M22.2011 18.9922C18.4886 18.9922 15.7539 16.4026 15.7539 12.1554C15.7539 7.90814 18.4403 5.36694 22.2011 5.36694C26.181 5.36694 28.3784 8.19843 28.3784 11.2769C28.3784 11.8626 28.3784 12.1554 28.3301 12.5959H16.8768C16.9736 16.2829 19.4664 18.0424 22.2011 18.0424C24.9359 18.0424 26.6953 16.6496 27.1333 14.4521H28.2817C27.7699 17.0646 25.5953 18.9947 22.2011 18.9947V18.9922ZM16.8768 11.6919H27.281C27.4516 8.0049 24.8646 6.2938 22.1782 6.2938C19.4919 6.2938 17.0016 8.02781 16.8794 11.6919H16.8768Z" fill="#CCDC55"/>
<path d="M37.4178 5.36694C40.3486 5.36694 42.3016 7.00421 43.035 9.0056V5.53754H44.135V18.7987H43.035V15.3077C42.3016 17.3345 40.3232 18.9947 37.4178 18.9947C33.7053 18.9947 31.019 16.3338 31.019 12.1579C31.019 7.98199 33.7053 5.36949 37.4178 5.36949V5.36694ZM37.563 6.31926C34.3648 6.31926 32.1419 8.49379 32.1419 12.1554C32.1419 15.8169 34.3648 18.0169 37.563 18.0169C40.7611 18.0169 43.0324 15.7456 43.0324 12.1554C43.0324 8.56508 40.6644 6.31926 37.563 6.31926Z" fill="#CCDC55"/>
<path d="M59.3465 18.7987H58.2491V15.9163C57.4928 17.9915 55.5627 19.0177 53.3882 19.0177C50.4345 19.0177 48.0155 17.2607 48.0155 13.2554V5.5376H49.09V13.1816C49.09 16.4307 50.8724 18.0654 53.5333 18.0654C56.1942 18.0654 58.2465 16.3314 58.2465 12.6443V5.5376H59.344V18.7987H59.3465Z" fill="#CCDC55"/>
<path d="M63.8916 6.48987H61.8903V5.53755H63.8916V2.16626H64.9916V5.53755H68.9231V6.48987H64.9916V15.2568C64.9916 17.2582 65.6511 17.8209 67.4336 17.8209H68.9231V18.7987H67.263C64.9917 18.7987 63.8942 17.8718 63.8942 15.2568V6.48987H63.8916Z" fill="#CCDC55"/>
<path d="M81.0588 5.53758H82.1817L74.4639 25.0244H73.341L75.8083 18.7961L70.2396 5.53503H71.4363L76.4169 17.5739L81.0562 5.53503L81.0588 5.53758Z" fill="#CCDC55"/>
<path d="M4.2523 38.7973C1.91989 38.7973 0.274983 37.7381 0.0789185 35.78H0.98031C1.11781 37.1321 2.23309 38.0334 4.2523 38.0334C5.91758 38.0334 6.8979 37.0531 6.8979 35.8971C6.8979 32.9587 0.37429 34.6621 0.37429 30.6263C0.37429 29.1367 1.82313 27.8635 3.90091 27.8635C6.11364 27.8635 7.5854 29.0195 7.70253 30.998H6.82151C6.74258 29.6663 5.76225 28.6071 3.88309 28.6071C2.33494 28.6071 1.25785 29.5288 1.25785 30.6263C1.25785 33.9186 7.7229 32.1744 7.76364 35.8971C7.76364 37.5624 6.29443 38.7973 4.25739 38.7973H4.2523Z" fill="#CCDC55"/>
<path d="M17.8139 27.9424H19.2245L12.8766 43.676H11.4456L13.5234 38.5808L9.13354 27.9424H10.6435L14.2873 37.0734L17.8139 27.9424Z" fill="#CCDC55"/>
<path d="M24.8289 38.8176C22.3208 38.8176 20.5588 37.4452 20.4391 35.4871H22.2801C22.3794 36.526 23.2986 37.3102 24.8085 37.3102C26.2192 37.3102 27.0034 36.6049 27.0034 35.7239C27.0034 33.3329 20.6555 34.7257 20.6555 30.7281C20.6555 29.0832 22.2037 27.7311 24.5946 27.7311C26.9856 27.7311 28.5338 29.0042 28.6509 31.1024H26.8685C26.7896 30.0253 25.9671 29.241 24.5361 29.241C23.2222 29.241 22.4405 29.8674 22.4405 30.7306C22.4405 33.2769 28.6713 31.8866 28.7502 35.7264C28.7502 37.491 27.2021 38.8227 24.8314 38.8227L24.8289 38.8176Z" fill="#CCDC55"/>
<path d="M31.569 29.6662H30.2958V27.8431H31.569V25.1593H33.8225V27.8431H36.4477V29.6662H33.8225V35.6424C33.8225 36.4445 34.1356 36.7781 35.0752 36.7781H36.4477V38.6394H34.6831C32.7632 38.6394 31.5664 37.8373 31.5664 35.6424V29.6662H31.569Z" fill="#CCDC55"/>
<path d="M43.1291 38.8177C39.9743 38.8177 37.6826 36.6228 37.6826 33.2133C37.6826 29.8038 39.9157 27.6089 43.1291 27.6089C46.3426 27.6089 48.4789 29.7452 48.4789 32.9765C48.4789 33.3304 48.4586 33.6818 48.4 34.0332H40.4657C40.6032 35.6399 41.7007 36.5413 43.0706 36.5413C44.247 36.5413 44.8937 35.9531 45.2451 35.2274H48.2039C47.6157 37.2263 45.8129 38.8126 43.1291 38.8126V38.8177ZM40.4861 32.1948H45.6398C45.6016 30.7638 44.4634 29.8624 43.0528 29.8624C41.7389 29.8624 40.7025 30.7052 40.4861 32.1948Z" fill="#CCDC55"/>
<path d="M65.4092 32.704C65.4092 31.273 64.5868 30.4887 63.3136 30.4887C62.0405 30.4887 61.218 31.273 61.218 32.704V38.6394H57.8875V32.704C57.8875 31.273 57.065 30.4887 55.7919 30.4887C54.5187 30.4887 53.6963 31.273 53.6963 32.704V38.6394H50.3453V27.7056H53.6963V29.0781C54.343 28.1971 55.4608 27.5885 56.8893 27.5885C58.5342 27.5885 59.8685 28.3142 60.612 29.6255C61.3377 28.4695 62.7076 27.5885 64.2965 27.5885C67.0007 27.5885 68.7449 29.3123 68.7449 32.2508V38.6369H65.4143V32.7015L65.4092 32.704Z" fill="#CCDC55"/>
<path d="M75.0317 27.5121C76.6002 27.5121 77.6977 28.197 78.2655 29.1774V27.6496H82.1053V38.642H78.2655V37.1142C77.6977 38.0945 76.5798 38.7794 75.0317 38.7794C72.4268 38.7794 70.3491 36.6431 70.3491 33.1369C70.3491 29.6306 72.4268 27.5146 75.0317 27.5146V27.5121ZM76.2641 30.863C75.1666 30.863 74.2653 31.6473 74.2653 33.1369C74.2653 34.6264 75.1666 35.4285 76.2641 35.4285C77.3616 35.4285 78.2629 34.6264 78.2629 33.1369C78.2629 31.6473 77.3412 30.863 76.2641 30.863Z" fill="#CCDC55"/>
</svg>
