<svg width="128" height="135" viewBox="0 0 128 135" fill="none" xmlns="http://www.w3.org/2000/svg">
<path fill-rule="evenodd" clip-rule="evenodd" d="M41.9904 34.8576L40.3974 29.2476L40.7258 28.9907L41.5228 28.3674L42.0289 27.9716L46.5856 33.7978L45.2825 34.817L42.2278 30.9112L43.6617 36.0846L42.7786 36.7752L38.0963 34.1283L41.1578 38.0428L39.8601 39.0577L35.3035 33.2315L35.8096 32.8357L36.6012 32.2166L36.935 31.9555L41.9904 34.8576ZM32.0287 42.5054L32.149 42.6065C32.5572 42.9496 32.9856 43.2084 33.4342 43.383C33.8827 43.5576 34.3332 43.6415 34.7854 43.6346C35.2342 43.6248 35.6681 43.5193 36.0874 43.318C36.506 43.1102 36.8898 42.7988 37.2387 42.3836C37.5847 41.972 37.8226 41.5438 37.9522 41.0991C38.0784 40.6515 38.1077 40.2058 38.0401 39.7621C37.969 39.3154 37.8089 38.8861 37.5597 38.4743C37.3105 38.0625 36.9818 37.685 36.5737 37.342L36.4533 37.2408C36.0451 36.8978 35.6167 36.6389 35.1682 36.4643C34.7161 36.2868 34.2657 36.2029 33.8169 36.2127C33.3647 36.2196 32.9292 36.3269 32.5106 36.5346C32.0914 36.7359 31.7073 37.0441 31.3584 37.4593C31.0124 37.871 30.7748 38.3024 30.6457 38.7534C30.5161 39.1981 30.4868 39.6438 30.5579 40.0905C30.6284 40.5307 30.79 40.9582 31.0426 41.373C31.2918 41.7848 31.6205 42.1623 32.0287 42.5054ZM33.209 41.3453L33.0887 41.2442C32.8375 41.033 32.6222 40.8075 32.4429 40.5675C32.2601 40.3246 32.1284 40.074 32.0478 39.8158C31.9672 39.5575 31.9499 39.3019 31.9959 39.0488C32.0413 38.7893 32.1637 38.541 32.3631 38.3038C32.5625 38.0665 32.7846 37.9049 33.0295 37.819C33.2738 37.7267 33.5301 37.698 33.7983 37.733C34.0695 37.7644 34.3405 37.8493 34.6112 37.9876C34.8814 38.1194 35.1421 38.2909 35.3933 38.502L35.5137 38.6032C35.7684 38.8172 35.9856 39.0474 36.1655 39.2938C36.3483 39.5368 36.4782 39.7859 36.5553 40.0412C36.6325 40.2965 36.6466 40.5524 36.5976 40.809C36.5517 41.062 36.4304 41.3054 36.234 41.5392C36.0317 41.7799 35.8084 41.9464 35.5641 42.0388C35.3198 42.1311 35.0652 42.1613 34.8005 42.1292C34.5357 42.0972 34.2679 42.012 33.9972 41.8738C33.7264 41.7355 33.4637 41.5594 33.209 41.3453ZM25.896 45.8522L28.4759 47.3032L28.8546 46.6299L27.2532 43.4391L28.2619 41.6457L30.0428 45.6748L34.826 45.063L33.7637 46.9518L30.1981 47.2811L29.7748 48.0338L32.3428 49.4781L31.5352 50.914L25.0884 47.2881L25.896 45.8522ZM29.6121 55.9209C29.9233 55.5601 30.1674 55.121 30.3444 54.6036C30.5007 54.1465 30.5753 53.7241 30.5683 53.3364C30.5627 52.9443 30.502 52.5936 30.3862 52.2843C30.2661 51.9735 30.1219 51.7051 29.9536 51.4789L28.8771 52.0283C29.0793 52.3383 29.2058 52.6657 29.2564 53.0105C29.3071 53.3554 29.2682 53.7154 29.1399 54.0905C29.0382 54.3881 28.8936 54.6348 28.7062 54.8308C28.5144 55.0253 28.2935 55.1713 28.0434 55.2688C27.7933 55.3663 27.5242 55.414 27.236 55.4117C27.0179 55.4057 26.7957 55.3726 26.5692 55.3123L28.1393 50.7212L27.4731 50.4933C26.9686 50.3208 26.4858 50.2255 26.0247 50.2075C25.5652 50.1852 25.1417 50.2475 24.7543 50.3944C24.3641 50.5355 24.0208 50.7648 23.7243 51.0825C23.4278 51.4001 23.1941 51.809 23.023 52.3092C22.8681 52.762 22.8084 53.2112 22.8439 53.6568C22.8793 54.1024 23.008 54.5221 23.2297 54.9158C23.4472 55.308 23.7507 55.6599 24.1403 55.9713C24.5299 56.2828 24.9985 56.5321 25.5461 56.7194L25.8048 56.8079C26.2835 56.9716 26.7563 57.0466 27.2234 57.033C27.6904 57.0193 28.1264 56.9204 28.5314 56.7361C28.9378 56.5476 29.2981 56.2759 29.6121 55.9209ZM25.4613 54.8972L26.4938 51.8779L26.3709 51.8359C26.0877 51.7487 25.8055 51.7148 25.5243 51.7342C25.2446 51.7493 24.9939 51.8346 24.7722 51.9899C24.5505 52.1453 24.3806 52.3955 24.2627 52.7404C24.1742 52.9992 24.1513 53.249 24.1941 53.49C24.2341 53.7253 24.3347 53.9451 24.496 54.1496C24.6573 54.354 24.872 54.543 25.1401 54.7166C25.2403 54.78 25.3473 54.8402 25.4613 54.8972ZM30.9985 64.3623L27.4987 63.8854C27.7636 63.7091 27.9858 63.491 28.1653 63.2311C28.3791 62.9107 28.5171 62.5225 28.5792 62.0664C28.642 61.6058 28.6048 61.1868 28.4676 60.8094C28.3305 60.4319 28.1111 60.1008 27.8096 59.8159C27.5041 59.5259 27.1339 59.2892 26.699 59.1058C26.2601 58.9172 25.7743 58.7866 25.2415 58.714L25.0992 58.6947C24.5393 58.6184 24.023 58.6101 23.5503 58.6699C23.0731 58.7291 22.6553 58.8584 22.297 59.058C21.9341 59.2569 21.6403 59.5227 21.4156 59.8555C21.1864 60.1876 21.0404 60.5839 20.9777 61.0445C20.9161 61.4961 20.9481 61.9029 21.0735 62.2649C21.1868 62.5919 21.3648 62.8845 21.6075 63.1428L20.8344 63.1085L20.6296 64.6122L30.7761 65.9946L30.9985 64.3623ZM26.8543 63.2319C26.6592 63.4491 26.4172 63.6047 26.1284 63.6987L22.904 63.2594C22.7941 63.1838 22.6954 63.099 22.6078 63.0052C22.4553 62.8418 22.3457 62.6498 22.2792 62.4292C22.2082 62.2079 22.1923 61.9528 22.2317 61.6638C22.2717 61.3703 22.3691 61.1283 22.5238 60.9378C22.6746 60.7422 22.8699 60.5917 23.1096 60.4864C23.3493 60.3811 23.6203 60.3168 23.9224 60.2936C24.22 60.2697 24.5381 60.2809 24.8768 60.327L25.0191 60.3464C25.3487 60.3913 25.656 60.4654 25.9409 60.5686C26.2258 60.6718 26.4719 60.8065 26.6792 60.9727C26.8826 61.1338 27.0334 61.3269 27.1315 61.5518C27.2297 61.7767 27.2587 62.036 27.2187 62.3295C27.1671 62.7088 27.0456 63.0096 26.8543 63.2319ZM26.3354 72.5888L24.96 72.7998L25.101 73.7187C25.1473 74.0205 25.2173 74.2818 25.3111 74.5026C25.4004 74.724 25.5109 74.903 25.6425 75.0396C25.7741 75.1762 25.9223 75.271 26.0872 75.3241C26.2521 75.3772 26.4314 75.3889 26.6251 75.3591C26.8188 75.3294 26.9899 75.2571 27.1382 75.1421C27.282 75.0278 27.3859 74.8782 27.4497 74.6932C27.5129 74.5037 27.5254 74.2851 27.4874 74.0373C27.4363 73.704 27.3242 73.4238 27.151 73.1968C26.9727 72.966 26.7733 72.7937 26.553 72.6799C26.4781 72.6422 26.4056 72.6119 26.3354 72.5888ZM23.9532 72.9542L23.4465 73.032C23.1852 73.0721 22.9672 73.1539 22.7925 73.2775C22.6179 73.4011 22.4936 73.5677 22.4197 73.7773C22.3451 73.9824 22.3299 74.2291 22.3741 74.5174C22.4149 74.7832 22.4952 75.006 22.615 75.1859C22.7348 75.3658 22.8796 75.498 23.0493 75.5826C23.2191 75.6672 23.4008 75.6947 23.5945 75.665L23.8432 77.2866C23.5549 77.3309 23.2649 77.3039 22.9732 77.2057C22.6816 77.1075 22.4095 76.9418 22.157 76.7085C21.9045 76.4752 21.6891 76.1832 21.5108 75.8325C21.3325 75.4817 21.2081 75.0766 21.1377 74.6172C21.0534 74.0676 21.0711 73.5669 21.1908 73.1152C21.3099 72.6589 21.5377 72.2805 21.8742 71.9799C22.2056 71.6755 22.6506 71.4804 23.2091 71.3947L26.4592 70.8962C26.7926 70.845 27.0887 70.7766 27.3475 70.6908C27.6012 70.6011 27.818 70.4964 27.9978 70.3766L28.1059 70.36L28.362 72.029C28.198 72.1325 27.9844 72.2275 27.721 72.314L27.6695 72.3296C27.7499 72.3834 27.8299 72.4423 27.9096 72.5064C28.1306 72.6846 28.3243 72.9108 28.4909 73.1849C28.6567 73.4545 28.7687 73.7785 28.8267 74.1569C28.9 74.6344 28.8707 75.0746 28.7388 75.4775C28.6025 75.8811 28.3884 76.2136 28.0965 76.4751C27.8002 76.7373 27.4448 76.9001 27.0303 76.9637C26.6429 77.0231 26.2895 77.0036 25.9701 76.905C25.6455 76.8027 25.3601 76.6252 25.1138 76.3725C24.8669 76.1153 24.6599 75.7874 24.4927 75.3889C24.321 74.991 24.1944 74.5263 24.1129 73.9948L23.9532 72.9542ZM22.8408 81.3186L25.7568 80.297L26.7129 83.0259L23.7969 84.0476L24.3416 85.6024L31.3221 83.1567L30.7773 81.602L27.9387 82.5965L26.9826 79.8675L29.8212 78.873L29.2765 77.3182L22.296 79.7638L22.8408 81.3186ZM28.4433 88.4601L25.394 90.2603L26.2176 91.6554C26.542 92.2048 26.9164 92.5342 27.3408 92.6435C27.7652 92.7528 28.2128 92.6685 28.6838 92.3904C29.0056 92.2005 29.2475 91.9783 29.4095 91.7238C29.5653 91.4678 29.6365 91.185 29.6231 90.8754C29.6034 90.5642 29.4893 90.232 29.2808 89.8788L28.4433 88.4601ZM30.5693 89.4795L29.5735 87.7928L32.7876 85.8953L31.9118 84.4119L23.3409 89.4719L25.0403 92.3505C25.4156 92.9862 25.8412 93.4785 26.3171 93.8274C26.7906 94.1723 27.2958 94.3556 27.8325 94.3774C28.3693 94.3992 28.9203 94.2433 29.4854 93.9097C30.1173 93.5367 30.5392 93.0547 30.7513 92.4638C30.9009 92.0469 30.9535 91.5861 30.9089 91.0811L35.6964 90.8225L34.7581 89.2331L30.5693 89.4795ZM103.268 42.1L106.107 39.9835L105.139 38.6846C104.758 38.1731 104.35 37.8857 103.916 37.8225C103.483 37.7593 103.047 37.8911 102.608 38.218C102.309 38.4413 102.092 38.6882 101.958 38.9585C101.831 39.2297 101.79 39.5186 101.837 39.8249C101.89 40.1322 102.039 40.4503 102.284 40.7792L103.268 42.1ZM101.045 41.3141L102.216 42.8844L99.2238 45.1153L100.253 46.4964L108.233 40.5474L106.235 37.8675C105.794 37.2756 105.318 36.8317 104.807 36.5358C104.3 36.2436 103.778 36.1154 103.242 36.1512C102.706 36.1871 102.175 36.4011 101.649 36.7933C101.06 37.2319 100.692 37.7563 100.545 38.3665C100.441 38.797 100.438 39.2608 100.536 39.7581L95.804 40.5281L96.9071 42.0078L101.045 41.3141ZM105.651 50.5047L104.404 47.8959L101.69 49.1932L100.98 47.7068L107.653 44.5167L108.363 46.0031L105.576 47.3357L106.823 49.9446L109.611 48.6119L110.321 50.0982L103.648 53.2884L102.937 51.802L105.651 50.5047ZM105.523 57.9784C105.609 58.0337 105.695 58.0837 105.78 58.1286L105.731 58.1496C105.478 58.2637 105.276 58.3809 105.124 58.5013L105.556 60.1335L105.662 60.1055C105.828 59.9672 106.032 59.84 106.275 59.7238C106.523 59.6109 106.81 59.5113 107.136 59.4249L110.315 58.583C110.861 58.4383 111.283 58.1969 111.58 57.8589C111.883 57.5242 112.069 57.1236 112.138 56.6573C112.209 56.1953 112.174 55.6956 112.031 55.1582C111.912 54.7088 111.745 54.3193 111.531 53.9896C111.316 53.6598 111.071 53.3924 110.795 53.1874C110.519 52.9823 110.231 52.8465 109.93 52.78C109.63 52.7134 109.339 52.7175 109.057 52.7922L109.477 54.3781C109.666 54.3279 109.85 54.3358 110.028 54.4019C110.205 54.4679 110.364 54.584 110.502 54.7501C110.64 54.9162 110.744 55.1292 110.813 55.3891C110.887 55.6711 110.898 55.918 110.846 56.1298C110.795 56.3461 110.689 56.525 110.529 56.6665C110.368 56.808 110.16 56.9126 109.905 56.9803L109.409 57.1116L109.139 56.094C109.002 55.5742 108.826 55.1256 108.613 54.7483C108.404 54.3699 108.164 54.0659 107.891 53.8365C107.619 53.6115 107.316 53.4654 106.983 53.3982C106.655 53.3342 106.301 53.3524 105.922 53.4528C105.517 53.5601 105.181 53.7599 104.914 54.0522C104.652 54.3433 104.474 54.6967 104.382 55.1125C104.294 55.5272 104.311 55.968 104.435 56.435C104.533 56.805 104.679 57.1153 104.873 57.3657C105.067 57.6205 105.284 57.8248 105.523 57.9784ZM106.853 57.6613C106.932 57.6908 107.007 57.7133 107.079 57.7288L108.424 57.3724L108.186 56.4738C108.108 56.1786 108.011 55.9263 107.894 55.7168C107.781 55.5061 107.653 55.3399 107.507 55.2181C107.362 55.0963 107.204 55.0178 107.035 54.9826C106.865 54.9474 106.685 54.9549 106.496 55.0051C106.307 55.0552 106.144 55.1454 106.009 55.2755C105.878 55.4045 105.791 55.5643 105.747 55.755C105.704 55.9502 105.715 56.1689 105.779 56.4112C105.866 56.7372 106.007 57.0038 106.204 57.2111C106.405 57.4217 106.622 57.5717 106.853 57.6613ZM106.818 66.404L103.288 66.3109L103.331 64.6641L113.568 64.934L113.528 66.451L112.755 66.5011C113.025 66.7314 113.234 67.0029 113.382 67.3156C113.546 67.6619 113.622 68.0628 113.61 68.5183C113.598 68.983 113.496 69.3929 113.304 69.748C113.117 70.1032 112.854 70.3995 112.515 70.6367C112.18 70.8741 111.779 71.0481 111.311 71.1589C110.848 71.2697 110.333 71.3177 109.769 71.3028L109.625 71.299C109.087 71.2849 108.59 71.2079 108.134 71.0683C107.681 70.9332 107.287 70.7382 106.952 70.4832C106.622 70.2329 106.367 69.9276 106.19 69.5673C106.013 69.207 105.93 68.7945 105.942 68.3299C105.954 67.8697 106.049 67.4688 106.227 67.127C106.377 66.8492 106.574 66.6082 106.818 66.404ZM108.201 66.4405C107.924 66.5654 107.7 66.7464 107.53 66.9835C107.364 67.2253 107.276 67.5376 107.266 67.9203C107.258 68.2164 107.315 68.4709 107.437 68.6838C107.559 68.8968 107.73 69.0722 107.95 69.2102C108.174 69.3529 108.434 69.46 108.728 69.5316C109.022 69.6032 109.336 69.6434 109.668 69.6522L109.812 69.6559C110.154 69.6649 110.471 69.6414 110.764 69.5853C111.062 69.5293 111.324 69.436 111.551 69.3052C111.778 69.1744 111.956 69.0036 112.085 68.7927C112.218 68.5865 112.288 68.3353 112.296 68.0392C112.304 67.7476 112.26 67.4958 112.165 67.2836C112.075 67.0715 111.945 66.8925 111.776 66.7467C111.679 66.663 111.571 66.5895 111.454 66.5263L108.201 66.4405ZM104.96 76.0344C105.081 75.5011 105.277 75.0385 105.549 74.6467C105.823 74.2603 106.152 73.9518 106.536 73.7211C106.919 73.4949 107.342 73.3502 107.805 73.2869C108.268 73.2236 108.747 73.2479 109.24 73.3598L109.507 73.4203C110.071 73.5482 110.563 73.7463 110.984 74.0146C111.404 74.2828 111.744 74.6004 112.002 74.9673C112.264 75.3352 112.437 75.7388 112.519 76.1781C112.602 76.6174 112.59 77.0704 112.484 77.5371C112.368 78.0526 112.179 78.4841 111.918 78.8315C111.657 79.1788 111.34 79.4434 110.967 79.6252C110.597 79.8124 110.183 79.9194 109.723 79.9461C109.263 79.9772 108.773 79.9339 108.253 79.816L107.566 79.6603L108.639 74.9282C108.407 74.8924 108.183 74.8831 107.965 74.9003C107.679 74.9287 107.416 75.0047 107.178 75.1282C106.939 75.2518 106.735 75.4205 106.565 75.6343C106.4 75.8491 106.282 76.1098 106.213 76.4165C106.125 76.8031 106.125 77.1652 106.212 77.5027C106.299 77.8402 106.459 78.1523 106.693 78.439L105.681 79.0998C105.49 78.8928 105.318 78.6412 105.166 78.345C105.018 78.0497 104.92 77.7075 104.873 77.3183C104.824 76.9335 104.854 76.5055 104.96 76.0344ZM109.079 78.3351L109.785 75.2231C109.904 75.2677 110.017 75.3162 110.123 75.3685C110.408 75.5126 110.642 75.6777 110.824 75.8639C111.006 76.05 111.13 76.2579 111.194 76.4875C111.262 76.7226 111.266 76.9735 111.206 77.2402C111.125 77.5957 110.983 77.8626 110.779 78.0406C110.575 78.2187 110.335 78.3301 110.058 78.3749C109.781 78.4241 109.497 78.4204 109.206 78.3638L109.079 78.3351ZM107.513 83.2641L110.23 84.4369L110.883 82.9243L104.092 79.9936L103.439 81.5062L106.144 82.6736L105.802 83.4664L102.291 84.1674L101.432 86.157L106.125 85.0476L108.318 88.868L109.133 86.9788L107.207 83.9733L107.513 83.2641ZM104.394 88.1909L104.525 88.2786C104.967 88.5761 105.334 88.9163 105.626 89.2991C105.921 89.6845 106.128 90.0923 106.245 90.5225C106.363 90.959 106.382 91.4053 106.3 91.8613C106.22 92.3236 106.03 92.7779 105.73 93.2242C105.428 93.6742 105.079 94.0217 104.683 94.2667C104.289 94.5179 103.868 94.6711 103.419 94.7263C102.974 94.784 102.517 94.7487 102.048 94.6205C101.584 94.4948 101.13 94.2832 100.688 93.9858L100.557 93.898C100.115 93.6006 99.7476 93.2604 99.4558 92.8775C99.1641 92.4947 98.959 92.085 98.8406 91.6485C98.726 91.2145 98.7075 90.7682 98.7851 90.3097C98.8665 89.8537 99.0573 89.4026 99.3573 88.9563C99.6599 88.5062 100.008 88.1556 100.402 87.9043C100.798 87.6594 101.218 87.508 101.663 87.4504C102.112 87.3952 102.569 87.4305 103.033 87.5562C103.498 87.6818 103.952 87.8934 104.394 88.1909ZM103.605 89.6458L103.475 89.5581C103.199 89.3725 102.919 89.2254 102.635 89.1169C102.351 89.0083 102.075 88.9523 101.809 88.9487C101.542 88.9452 101.292 89.0023 101.059 89.1203C100.826 89.2382 100.622 89.4276 100.447 89.6886C100.276 89.942 100.182 90.1969 100.163 90.4534C100.142 90.7137 100.183 90.9667 100.287 91.2123C100.391 91.4579 100.547 91.6917 100.755 91.9137C100.96 92.1395 101.2 92.3452 101.476 92.5308L101.607 92.6185C101.879 92.8016 102.157 92.9442 102.439 93.0465C102.723 93.155 103.002 93.2104 103.275 93.2127C103.545 93.2189 103.797 93.163 104.03 93.045C104.264 92.9335 104.468 92.7491 104.641 92.4919C104.814 92.2347 104.909 91.9747 104.926 91.7119C104.945 91.4553 104.901 91.203 104.793 90.9549C104.685 90.7067 104.527 90.4716 104.32 90.2496C104.116 90.0302 103.878 89.8289 103.605 89.6458ZM97.6952 102.233L95.5066 96.8273L100.845 99.1674L101.149 98.8718L101.869 98.171L102.33 97.7229L97.1717 92.4219L95.9909 93.5708L99.4566 97.1324L94.5162 95.0058L93.7128 95.7876L95.6961 100.776L92.2381 97.2226L91.0525 98.3763L96.2107 103.677L96.6712 103.229L97.3963 102.524L97.6952 102.233ZM87.6658 100.254C88.128 99.9619 88.5934 99.7727 89.062 99.6866C89.5292 99.6069 89.9803 99.6209 90.4151 99.7288C90.8461 99.8391 91.2479 100.035 91.6204 100.317C91.9928 100.599 92.3143 100.954 92.5846 101.382L92.7308 101.613C93.0401 102.102 93.249 102.59 93.3573 103.077C93.4657 103.564 93.4817 104.028 93.4052 104.47C93.3313 104.916 93.1684 105.324 92.9168 105.693C92.6651 106.062 92.3371 106.375 91.9326 106.631C91.4858 106.913 91.0474 107.085 90.6173 107.147C90.1872 107.209 89.7759 107.172 89.3834 107.038C88.9895 106.909 88.6205 106.692 88.2764 106.387C87.9284 106.084 87.6119 105.707 87.3269 105.257L86.9506 104.661L91.0517 102.068C90.9129 101.879 90.7605 101.714 90.5944 101.573C90.3712 101.39 90.1316 101.259 89.8757 101.178C89.6197 101.097 89.356 101.072 89.0847 101.104C88.8158 101.139 88.5485 101.241 88.2827 101.409C87.9476 101.621 87.6917 101.877 87.5151 102.177C87.3384 102.478 87.2317 102.812 87.195 103.18L86.0118 102.934C86.0224 102.652 86.0783 102.353 86.1796 102.035C86.2832 101.722 86.4557 101.41 86.6971 101.101C86.9346 100.795 87.2575 100.512 87.6658 100.254ZM88.9578 104.791L91.6548 103.086C91.7078 103.202 91.7535 103.316 91.7918 103.428C91.892 103.731 91.9408 104.013 91.9383 104.274C91.9358 104.534 91.8764 104.768 91.7601 104.977C91.6424 105.191 91.468 105.372 91.2369 105.518C90.9288 105.713 90.6396 105.801 90.3695 105.783C90.0994 105.765 89.8506 105.675 89.6232 105.511C89.3919 105.35 89.1932 105.147 89.0272 104.901L88.9578 104.791ZM81.7025 108.081L82.8433 110.952L81.3122 111.56L78.5814 104.687L80.1124 104.078L81.2229 106.874L83.9102 105.806L82.7998 103.011L84.3308 102.402L87.0616 109.276L85.5306 109.885L84.3898 107.013L81.7025 108.081ZM77.7543 112.494L77.3239 112.573L76.1339 112.791L72.7116 113.419L71.6131 107.435L70.618 107.618L69.9835 104.162L71.6039 103.865L72.0014 106.03L72.9897 105.848L76.6608 105.174L76.2634 103.009L77.9107 102.707L78.5384 106.164L77.94 106.274C77.7851 106.516 77.6571 106.752 77.556 106.984C77.4512 107.221 77.3725 107.474 77.32 107.743C77.2683 108.017 77.2468 108.329 77.2556 108.679C77.2598 109.031 77.2962 109.443 77.3647 109.917L77.7543 112.494ZM75.7443 110.215L75.9253 111.412L74.0734 111.752L73.2267 107.139L76.0557 106.62C76.0289 106.677 76.0031 106.735 75.9782 106.794C75.8081 107.205 75.698 107.691 75.648 108.252C75.598 108.812 75.6301 109.466 75.7443 110.215ZM67.0818 108.619L65.481 113.654L63.7174 113.633L66.7848 105.144C66.8553 104.963 66.9465 104.766 67.0584 104.553C67.1703 104.34 67.3163 104.139 67.4963 103.949C67.6718 103.755 67.8901 103.601 68.1512 103.485C68.4124 103.365 68.7276 103.308 69.0967 103.312C69.2425 103.314 69.3836 103.329 69.52 103.358C69.6519 103.382 69.7769 103.409 69.8951 103.438L69.887 104.695C69.8415 104.69 69.7869 104.685 69.7231 104.68C69.6548 104.675 69.6002 104.672 69.5592 104.671C69.2858 104.668 69.0575 104.699 68.8744 104.766C68.6914 104.827 68.542 104.93 68.4264 105.075C68.3062 105.219 68.2036 105.414 68.1187 105.659L67.8706 106.303L70.4025 113.712L68.6253 113.691L67.0818 108.619ZM58.0434 109.535L58.2579 108.442L60.6117 108.903C60.6262 108.765 60.6349 108.627 60.6377 108.491C60.6438 108.199 60.6084 107.93 60.5315 107.683C60.4493 107.439 60.314 107.229 60.1257 107.053C59.9365 106.881 59.6764 106.762 59.3455 106.698C59.0816 106.646 58.8345 106.651 58.6041 106.712C58.3684 106.778 58.1673 106.891 58.0008 107.054C57.8297 107.215 57.7134 107.418 57.6517 107.661L56.129 107.362C56.2345 106.895 56.4592 106.496 56.803 106.164C57.1468 105.832 57.5624 105.595 58.0499 105.454C58.532 105.317 59.0414 105.3 59.578 105.406C60.1325 105.514 60.5993 105.704 60.9784 105.973C61.3521 106.246 61.6424 106.577 61.8494 106.966C62.0564 107.355 62.184 107.782 62.2322 108.246C62.2804 108.711 62.2553 109.193 62.1571 109.694L62.111 109.929C62.0127 110.43 61.8535 110.886 61.6334 111.298C61.4124 111.715 61.1325 112.064 60.7939 112.346C60.4509 112.627 60.0552 112.821 59.6069 112.928C59.1578 113.039 58.6582 113.041 58.1081 112.933C57.5312 112.82 57.0465 112.604 56.6538 112.286C56.2558 111.971 55.972 111.583 55.8023 111.123C55.6317 110.666 55.5927 110.167 55.6855 109.623L57.2082 109.922C57.169 110.193 57.1887 110.447 57.2673 110.686C57.3406 110.927 57.4719 111.134 57.6611 111.306C57.8458 111.477 58.0858 111.591 58.3809 111.649C58.7074 111.713 58.9933 111.7 59.2388 111.609C59.4789 111.521 59.6817 111.375 59.8472 111.171C60.0118 110.971 60.1463 110.735 60.2508 110.463C60.3088 110.313 60.3598 110.158 60.4037 109.998L58.0434 109.535ZM48.4752 32.8109C48.9503 32.7752 49.4332 32.6367 49.9239 32.3952C50.3573 32.1819 50.7084 31.9355 50.9772 31.6559C51.2501 31.3744 51.4547 31.0832 51.5912 30.7824C51.7256 30.4776 51.813 30.1857 51.8535 29.9067L50.7033 29.5356C50.6277 29.8979 50.486 30.219 50.2784 30.4989C50.0707 30.7789 49.7891 31.0064 49.4333 31.1814C49.1512 31.3203 48.8745 31.3929 48.6034 31.3993C48.3303 31.4017 48.0708 31.3491 47.8248 31.2415C47.5789 31.134 47.3547 30.9776 47.1522 30.7725C47.002 30.6143 46.8681 30.4339 46.7502 30.2313L51.1039 28.089L50.793 27.4573C50.5576 26.9788 50.283 26.5705 49.9692 26.2322C49.6596 25.8919 49.3157 25.637 48.9377 25.4675C48.5618 25.2918 48.1567 25.2118 47.7225 25.2274C47.2882 25.243 46.834 25.3675 46.3596 25.6009C45.9303 25.8121 45.5708 26.088 45.2813 26.4286C44.9918 26.7692 44.7865 27.1572 44.6655 27.5925C44.5425 28.0238 44.509 28.4873 44.565 28.9829C44.6209 29.4785 44.7767 29.986 45.0322 30.5053L45.1529 30.7507C45.3763 31.2045 45.6581 31.5915 45.9985 31.9117C46.3389 32.2318 46.7175 32.4696 47.1343 32.6251C47.5552 32.7786 48.0022 32.8405 48.4752 32.8109ZM49.1219 27.7462L46.2588 29.1551C46.2184 29.0342 46.1851 28.916 46.1589 28.8005C46.0916 28.4882 46.073 28.2027 46.1032 27.9441C46.1334 27.6854 46.2174 27.4587 46.3552 27.2639C46.495 27.0631 46.6877 26.9023 46.933 26.7815C47.2601 26.6206 47.557 26.5633 47.8237 26.6099C48.0904 26.6564 48.3282 26.7731 48.5369 26.9599C48.7497 27.1447 48.9256 27.3679 49.0646 27.6297L49.1219 27.7462ZM56.027 22.1854L56.8514 25.1633L54.0646 25.9347L53.2402 22.9569L51.6525 23.3964L53.6258 30.5248L55.2135 30.0853L54.4111 27.1865L57.1979 26.415L58.0003 29.3138L59.5881 28.8743L57.6148 21.7459L56.027 22.1854ZM61.6335 21.1551L61.1972 21.1881L61.3119 23.7914C61.3298 24.2699 61.3223 24.6841 61.2893 25.0339C61.2609 25.3834 61.2065 25.6914 61.1261 25.958C61.0454 26.2201 60.9404 26.4634 60.8112 26.688C60.6861 26.9077 60.5338 27.1294 60.3542 27.3532L59.7475 27.3991L60.0057 30.9033L61.6757 30.777L61.5097 28.5821L65.2315 28.3006L66.2335 28.2248L66.3995 30.4197L68.0423 30.2954L67.7773 26.7917L66.7685 26.8681L66.3096 20.8014L62.84 21.0638L61.6335 21.1551ZM62.9014 22.4577L62.9546 23.6671C62.989 24.4232 62.9516 25.0773 62.8426 25.6294C62.7335 26.1815 62.5726 26.653 62.36 27.0438C62.3289 27.1001 62.2971 27.1551 62.2645 27.2087L65.1325 26.9918L64.7788 22.3157L62.9014 22.4577ZM68.5524 20.7269L70.2909 28.3607L69.9764 28.9754C69.8662 29.2103 69.7437 29.3931 69.609 29.5241C69.4787 29.6556 69.3194 29.7424 69.1309 29.7844C68.9419 29.831 68.7116 29.8383 68.44 29.8063C68.3993 29.8015 68.3452 29.7929 68.2779 29.7804C68.215 29.7684 68.1613 29.7575 68.1165 29.7476L67.9762 30.9976C68.0907 31.0386 68.2122 31.0781 68.3408 31.1162C68.4734 31.1594 68.6121 31.1895 68.7569 31.2065C69.1235 31.2497 69.443 31.2254 69.7154 31.1335C69.9872 31.0463 70.2206 30.9154 70.4155 30.7411C70.6144 30.5718 70.7807 30.3871 70.9144 30.1872C71.0481 29.9873 71.1595 29.8008 71.2487 29.6277L75.1921 21.5088L73.4405 21.3025L71.3189 26.141L70.3176 20.9348L68.5524 20.7269ZM80.3173 27.2944L80.6506 26.2311L78.3553 25.5117C78.4165 25.3576 78.4842 25.2093 78.5583 25.0667C78.692 24.8078 78.8516 24.588 79.0372 24.4073C79.2241 24.2223 79.4417 24.0995 79.69 24.0388C79.9439 23.9751 80.2296 23.993 80.5471 24.0925C80.8341 24.1825 81.0601 24.3225 81.2249 24.5127C81.3941 24.7042 81.5019 24.9242 81.5482 25.1728C81.6002 25.4183 81.5918 25.6736 81.5231 25.9386L83.0038 26.4027C83.1557 25.8724 83.1719 25.3712 83.0524 24.8991C82.9342 24.4227 82.6946 24.0062 82.3336 23.6495C81.9783 23.2898 81.5202 23.022 80.9592 22.8462C80.4243 22.6786 79.9275 22.6256 79.4688 22.6872C79.0115 22.7444 78.5969 22.8939 78.2251 23.1355C77.8576 23.3786 77.5411 23.6949 77.2757 24.0845C77.0117 24.4698 76.8034 24.906 76.6507 25.393L76.5792 25.6213C76.4266 26.1084 76.3487 26.5855 76.3456 27.0525C76.3425 27.5196 76.4224 27.9578 76.5855 28.3671C76.7486 28.7763 77.0008 29.1372 77.3423 29.4496C77.6895 29.759 78.1327 29.9982 78.672 30.1672C79.1938 30.3307 79.7019 30.3705 80.1962 30.2867C80.6962 30.1998 81.1353 30.0103 81.5135 29.7181C81.8916 29.4258 82.1587 29.0535 82.3149 28.6009L80.8341 28.1369C80.7461 28.372 80.6083 28.5604 80.4206 28.7022C80.2372 28.8453 80.0248 28.9363 79.7834 28.9753C79.5476 29.0112 79.3015 28.989 79.0449 28.9086C78.7231 28.8077 78.4776 28.6615 78.3084 28.47C78.1405 28.2741 78.0291 28.0506 77.9741 27.7993C77.9248 27.5451 77.9192 27.2735 77.9572 26.9845C77.9751 26.8489 77.9988 26.7131 78.0284 26.577L80.3173 27.2944Z" fill="url(#paint0_linear_101_35964)"/>
<defs>
<linearGradient id="paint0_linear_101_35964" x1="31.5917" y1="99.705" x2="103.053" y2="34.3402" gradientUnits="userSpaceOnUse">
<stop stop-color="#496D74"/>
<stop offset="1" stop-color="#E5F472"/>
</linearGradient>
</defs>
</svg>
